<?xml version="1.0" standalone="no"?>
<!DOCTYPE svg PUBLIC "-//W3C//DTD SVG 20010904//EN"
 "http://www.w3.org/TR/2001/REC-SVG-20010904/DTD/svg10.dtd">
<svg version="1.0" xmlns="http://www.w3.org/2000/svg"
 width="700.000000pt" height="700.000000pt" viewBox="0 0 700.000000 700.000000"
 preserveAspectRatio="xMidYMid meet">
<metadata>
Created by potrace 1.14, written by Peter Selinger 2001-2017
</metadata>
<g transform="translate(0.000000,700.000000) scale(0.100000,-0.100000)"
fill="#000000" stroke="none">
<path d="M2379 6705 c-2 -1 -38 -6 -79 -9 -41 -3 -86 -8 -100 -11 -13 -2 -40
-7 -60 -10 -117 -18 -356 -84 -445 -124 -11 -5 -54 -24 -95 -42 -104 -47 -243
-126 -358 -205 -53 -37 -99 -70 -102 -73 -3 -3 -34 -31 -70 -61 -410 -349
-675 -833 -756 -1380 -16 -109 -19 -298 -19 -1285 0 -1205 1 -1229 45 -1445
57 -276 190 -584 348 -810 213 -303 507 -558 831 -720 176 -89 361 -153 544
-191 106 -21 127 -25 247 -39 41 -5 597 -8 1235 -6 1269 2 1222 0 1470 62 798
200 1419 816 1623 1609 17 66 33 136 36 155 3 19 11 69 18 110 10 59 13 330
13 1235 0 1110 -3 1247 -25 1367 -6 29 -13 67 -16 83 -30 173 -102 381 -194
564 -222 439 -567 782 -1010 1001 -140 70 -368 151 -492 175 -16 3 -39 7 -53
10 -54 11 -82 15 -130 21 -27 3 -61 8 -75 12 -25 6 -2325 14 -2331 7z"/>
</g>
</svg>
