<?xml version="1.0" standalone="no"?>
<!DOCTYPE svg PUBLIC "-//W3C//DTD SVG 20010904//EN"
 "http://www.w3.org/TR/2001/REC-SVG-20010904/DTD/svg10.dtd">
<svg version="1.0" xmlns="http://www.w3.org/2000/svg"
 width="700.000000pt" height="700.000000pt" viewBox="0 0 700.000000 700.000000"
 preserveAspectRatio="xMidYMid meet">
<metadata>
Created by potrace 1.14, written by Peter Selinger 2001-2017
</metadata>
<g transform="translate(0.000000,700.000000) scale(0.100000,-0.100000)"
fill="#000000" stroke="none">
<path d="M1367 6504 c-38 -21 -57 -66 -46 -113 5 -20 22 -108 38 -196 37 -198
40 -212 47 -255 3 -19 9 -51 14 -70 5 -19 11 -51 14 -70 3 -19 14 -82 25 -140
11 -58 31 -166 45 -240 14 -74 28 -146 31 -160 3 -14 9 -50 15 -80 6 -30 12
-66 15 -80 3 -14 10 -54 16 -90 6 -36 15 -77 21 -92 12 -33 70 -62 105 -53 25
6 25 6 -8 -40 -30 -42 -35 -45 -66 -39 -59 11 -89 -11 -143 -102 -146 -247
-257 -555 -296 -821 -3 -26 -8 -57 -10 -68 -22 -115 -22 -459 0 -595 9 -52 20
-126 22 -140 3 -32 47 -199 71 -275 51 -160 146 -367 218 -481 19 -30 35 -57
35 -59 0 -16 159 -223 243 -316 54 -61 97 -111 95 -113 -1 -1 -28 -10 -58 -19
-30 -9 -83 -35 -117 -57 -68 -45 -169 -148 -184 -189 -23 -60 21 -131 82 -131
29 0 79 18 79 29 0 3 19 27 43 52 82 90 190 140 306 140 58 1 62 -1 188 -84
228 -149 505 -273 723 -322 8 -2 38 -8 65 -15 380 -87 803 -70 1185 47 622
190 1140 635 1419 1217 117 243 188 493 219 761 10 83 9 447 -1 520 -11 79
-36 226 -43 247 -2 9 -7 25 -9 35 -61 296 -265 702 -480 953 -39 46 -240 247
-285 286 -32 27 -220 163 -265 191 -51 32 -233 129 -260 139 -17 7 -49 21 -71
31 -79 40 -337 120 -444 138 -19 3 -60 10 -90 16 -104 18 -215 26 -362 25
-140 -1 -147 -2 -172 -25 -14 -14 -26 -29 -26 -35 -1 -32 -18 -40 -109 -51
-25 -3 -56 -7 -69 -10 -15 -2 -105 36 -270 117 -289 141 -576 281 -1225 597
-104 51 -201 94 -215 96 -15 3 -40 -2 -55 -11z"/>
<path d="M5974 5951 c-30 -18 -54 -64 -54 -101 0 -32 -59 -135 -104 -180 -112
-114 -282 -153 -433 -100 -75 26 -106 25 -140 -4 -23 -20 -28 -32 -28 -71 0
-59 28 -86 123 -115 308 -96 639 64 750 361 43 116 38 179 -17 212 -37 22 -59
21 -97 -2z"/>
<path d="M5995 4805 c-89 -38 -116 -162 -50 -235 83 -92 245 -27 245 100 0
100 -106 174 -195 135z"/>
<path d="M6115 3623 c-32 -8 -55 -33 -82 -93 -33 -72 -54 -174 -54 -264 0
-245 172 -484 401 -558 118 -37 177 -4 171 98 -1 25 -47 74 -70 74 -30 0 -136
58 -177 96 -136 130 -166 310 -83 498 25 58 19 98 -22 128 -31 23 -52 28 -84
21z"/>
<path d="M6015 2383 c-33 -9 -74 -43 -91 -75 -62 -120 61 -257 179 -199 53 27
78 61 85 116 10 96 -84 182 -173 158z"/>
<path d="M5395 1385 c-131 -28 -185 -66 -185 -132 0 -25 8 -43 29 -64 35 -35
60 -36 144 -9 34 11 84 22 110 23 196 15 389 -127 428 -315 18 -86 74 -125
140 -98 65 27 72 98 23 227 -62 167 -217 306 -399 359 -74 21 -210 25 -290 9z"/>
<path d="M4243 1011 c-116 -53 -113 -218 6 -268 79 -34 173 23 186 112 12 78
-30 144 -105 165 -44 12 -37 13 -87 -9z"/>
<path d="M2772 810 c-130 -79 -69 -280 81 -267 137 12 174 194 55 267 -18 11
-49 20 -68 20 -19 0 -50 -9 -68 -20z"/>
</g>
</svg>
