<?xml version="1.0" encoding="utf-8"?>
 <!DOCTYPE svg PUBLIC "-//W3C//DTD SVG 20010904//EN" "http://www.w3.org/TR/2001/REC-SVG-20010904/DTD/svg10.dtd">
<svg class="Qr-item-svg" width="100%" height="100%" viewBox="-6.6 -6.6 46.2 46.2" fill="white" xmlns="http://www.w3.org/2000/svg" xmlns:xlink="http://www.w3.org/1999/xlink"><rect width="1" height="1" fill="#0693e3" x="0" y="0"></rect><rect width="1" height="1" fill="#0693e3" x="0" y="1"></rect><rect width="1" height="1" fill="#0693e3" x="0" y="2"></rect><rect width="1" height="1" fill="#0693e3" x="0" y="3"></rect><rect width="1" height="1" fill="#0693e3" x="0" y="4"></rect><rect width="1" height="1" fill="#0693e3" x="0" y="5"></rect><rect width="1" height="1" fill="#0693e3" x="0" y="6"></rect><circle opacity="1" r="0.5" fill="#8ed1fc" cx="0.5" cy="8.5"></circle><circle opacity="1" r="0.5" fill="#8ed1fc" cx="0.5" cy="9.5"></circle><circle opacity="1" r="0.5" fill="#8ed1fc" cx="0.5" cy="12.5"></circle><circle opacity="1" r="0.5" fill="#8ed1fc" cx="0.5" cy="13.5"></circle><circle opacity="1" r="0.5" fill="#8ed1fc" cx="0.5" cy="15.5"></circle><circle opacity="1" r="0.5" fill="#8ed1fc" cx="0.5" cy="18.5"></circle><circle opacity="1" r="0.5" fill="#8ed1fc" cx="0.5" cy="20.5"></circle><circle opacity="1" r="0.5" fill="#8ed1fc" cx="0.5" cy="23.5"></circle><rect width="1" height="1" fill="#0693e3" x="0" y="26"></rect><rect width="1" height="1" fill="#0693e3" x="0" y="27"></rect><rect width="1" height="1" fill="#0693e3" x="0" y="28"></rect><rect width="1" height="1" fill="#0693e3" x="0" y="29"></rect><rect width="1" height="1" fill="#0693e3" x="0" y="30"></rect><rect width="1" height="1" fill="#0693e3" x="0" y="31"></rect><rect width="1" height="1" fill="#0693e3" x="0" y="32"></rect><rect width="1" height="1" fill="#0693e3" x="1" y="0"></rect><rect width="1" height="1" fill="#0693e3" x="1" y="6"></rect><circle opacity="1" r="0.5" fill="#8ed1fc" cx="1.5" cy="9.5"></circle><circle opacity="1" r="0.5" fill="#8ed1fc" cx="1.5" cy="13.5"></circle><circle fill="#8ed1fc" cx="1.5" cy="14.5" r="0.5" opacity="1"></circle><circle fill="#8ed1fc" cx="1.5" cy="16.5" r="0.5" opacity="1"></circle><circle opacity="1" r="0.5" fill="#8ed1fc" cx="1.5" cy="18.5"></circle><circle opacity="1" r="0.5" fill="#8ed1fc" cx="1.5" cy="19.5"></circle><circle opacity="1" r="0.5" fill="#8ed1fc" cx="1.5" cy="22.5"></circle><circle opacity="1" r="0.5" fill="#8ed1fc" cx="1.5" cy="24.5"></circle><rect width="1" height="1" fill="#0693e3" x="1" y="26"></rect><rect width="1" height="1" fill="#0693e3" x="1" y="32"></rect><rect width="1" height="1" fill="#0693e3" x="2" y="0"></rect><rect width="1" height="1" fill="#0693e3" x="2" y="2"></rect><rect width="1" height="1" fill="#0693e3" x="2" y="3"></rect><rect width="1" height="1" fill="#0693e3" x="2" y="4"></rect><rect width="1" height="1" fill="#0693e3" x="2" y="6"></rect><circle fill="#8ed1fc" cx="2.5" cy="9.5" r="0.5" opacity="1"></circle><circle opacity="1" r="0.5" fill="#8ed1fc" cx="2.5" cy="12.5"></circle><circle opacity="1" r="0.5" fill="#8ed1fc" cx="2.5" cy="14.5"></circle><circle opacity="1" r="0.5" fill="#8ed1fc" cx="2.5" cy="17.5"></circle><circle opacity="1" r="0.5" fill="#8ed1fc" cx="2.5" cy="18.5"></circle><circle opacity="1" r="0.5" fill="#8ed1fc" cx="2.5" cy="20.5"></circle><circle opacity="1" r="0.5" fill="#8ed1fc" cx="2.5" cy="21.5"></circle><circle opacity="1" r="0.5" fill="#8ed1fc" cx="2.5" cy="22.5"></circle><circle opacity="1" r="0.5" fill="#8ed1fc" cx="2.5" cy="23.5"></circle><circle opacity="1" r="0.5" fill="#8ed1fc" cx="2.5" cy="24.5"></circle><rect width="1" height="1" fill="#0693e3" x="2" y="26"></rect><rect width="1" height="1" fill="#0693e3" x="2" y="28"></rect><rect width="1" height="1" fill="#0693e3" x="2" y="29"></rect><rect width="1" height="1" fill="#0693e3" x="2" y="30"></rect><rect width="1" height="1" fill="#0693e3" x="2" y="32"></rect><rect width="1" height="1" fill="#0693e3" x="3" y="0"></rect><rect width="1" height="1" fill="#0693e3" x="3" y="2"></rect><rect width="1" height="1" fill="#0693e3" x="3" y="3"></rect><rect width="1" height="1" fill="#0693e3" x="3" y="4"></rect><rect width="1" height="1" fill="#0693e3" x="3" y="6"></rect><circle opacity="1" r="0.5" fill="#8ed1fc" cx="3.5" cy="8.5"></circle><circle opacity="1" r="0.5" fill="#8ed1fc" cx="3.5" cy="11.5"></circle><circle opacity="1" r="0.5" fill="#8ed1fc" cx="3.5" cy="12.5"></circle><circle opacity="1" r="0.5" fill="#8ed1fc" cx="3.5" cy="15.5"></circle><circle opacity="1" r="0.5" fill="#8ed1fc" cx="3.5" cy="16.5"></circle><circle opacity="1" r="0.5" fill="#8ed1fc" cx="3.5" cy="17.5"></circle><circle opacity="1" r="0.5" fill="#8ed1fc" cx="3.5" cy="19.5"></circle><circle opacity="1" r="0.5" fill="#8ed1fc" cx="3.5" cy="21.5"></circle><circle opacity="1" r="0.5" fill="#8ed1fc" cx="3.5" cy="22.5"></circle><circle opacity="1" r="0.5" fill="#8ed1fc" cx="3.5" cy="24.5"></circle><rect width="1" height="1" fill="#0693e3" x="3" y="26"></rect><rect width="1" height="1" fill="#0693e3" x="3" y="28"></rect><rect width="1" height="1" fill="#0693e3" x="3" y="29"></rect><rect width="1" height="1" fill="#0693e3" x="3" y="30"></rect><rect width="1" height="1" fill="#0693e3" x="3" y="32"></rect><rect width="1" height="1" fill="#0693e3" x="4" y="0"></rect><rect width="1" height="1" fill="#0693e3" x="4" y="2"></rect><rect width="1" height="1" fill="#0693e3" x="4" y="3"></rect><rect width="1" height="1" fill="#0693e3" x="4" y="4"></rect><rect width="1" height="1" fill="#0693e3" x="4" y="6"></rect><circle opacity="1" r="0.5" fill="#8ed1fc" cx="4.5" cy="8.5"></circle><circle opacity="1" r="0.5" fill="#8ed1fc" cx="4.5" cy="9.5"></circle><circle opacity="1" r="0.5" fill="#8ed1fc" cx="4.5" cy="12.5"></circle><circle opacity="1" r="0.5" fill="#8ed1fc" cx="4.5" cy="13.5"></circle><circle opacity="1" r="0.5" fill="#8ed1fc" cx="4.5" cy="16.5"></circle><circle opacity="1" r="0.5" fill="#8ed1fc" cx="4.5" cy="17.5"></circle><circle opacity="1" r="0.5" fill="#8ed1fc" cx="4.5" cy="19.5"></circle><circle opacity="1" r="0.5" fill="#8ed1fc" cx="4.5" cy="21.5"></circle><circle opacity="1" r="0.5" fill="#8ed1fc" cx="4.5" cy="23.5"></circle><circle opacity="1" r="0.5" fill="#8ed1fc" cx="4.5" cy="24.5"></circle><rect width="1" height="1" fill="#0693e3" x="4" y="26"></rect><rect width="1" height="1" fill="#0693e3" x="4" y="28"></rect><rect width="1" height="1" fill="#0693e3" x="4" y="29"></rect><rect width="1" height="1" fill="#0693e3" x="4" y="30"></rect><rect width="1" height="1" fill="#0693e3" x="4" y="32"></rect><rect width="1" height="1" fill="#0693e3" x="5" y="0"></rect><rect width="1" height="1" fill="#0693e3" x="5" y="6"></rect><circle opacity="1" r="0.5" fill="#8ed1fc" cx="5.5" cy="8.5"></circle><circle opacity="1" r="0.5" fill="#8ed1fc" cx="5.5" cy="9.5"></circle><circle opacity="1" r="0.5" fill="#8ed1fc" cx="5.5" cy="11.5"></circle><circle opacity="1" r="0.5" fill="#8ed1fc" cx="5.5" cy="13.5"></circle><circle opacity="1" r="0.5" fill="#8ed1fc" cx="5.5" cy="14.5"></circle><circle opacity="1" r="0.5" fill="#8ed1fc" cx="5.5" cy="15.5"></circle><circle opacity="1" r="0.5" fill="#8ed1fc" cx="5.5" cy="17.5"></circle><circle opacity="1" r="0.5" fill="#8ed1fc" cx="5.5" cy="20.5"></circle><circle opacity="1" r="0.5" fill="#8ed1fc" cx="5.5" cy="24.5"></circle><rect width="1" height="1" fill="#0693e3" x="5" y="26"></rect><rect width="1" height="1" fill="#0693e3" x="5" y="32"></rect><rect width="1" height="1" fill="#0693e3" x="6" y="0"></rect><rect width="1" height="1" fill="#0693e3" x="6" y="1"></rect><rect width="1" height="1" fill="#0693e3" x="6" y="2"></rect><rect width="1" height="1" fill="#0693e3" x="6" y="3"></rect><rect width="1" height="1" fill="#0693e3" x="6" y="4"></rect><rect width="1" height="1" fill="#0693e3" x="6" y="5"></rect><rect width="1" height="1" fill="#0693e3" x="6" y="6"></rect><circle opacity="1" r="0.5" fill="#8ed1fc" cx="6.5" cy="8.5"></circle><circle opacity="1" r="0.5" fill="#8ed1fc" cx="6.5" cy="10.5"></circle><circle opacity="1" r="0.5" fill="#8ed1fc" cx="6.5" cy="12.5"></circle><circle opacity="1" r="0.5" fill="#8ed1fc" cx="6.5" cy="14.5"></circle><circle opacity="1" r="0.5" fill="#8ed1fc" cx="6.5" cy="16.5"></circle><circle opacity="1" r="0.5" fill="#8ed1fc" cx="6.5" cy="18.5"></circle><circle opacity="1" r="0.5" fill="#8ed1fc" cx="6.5" cy="20.5"></circle><circle opacity="1" r="0.5" fill="#8ed1fc" cx="6.5" cy="22.5"></circle><circle opacity="1" r="0.5" fill="#8ed1fc" cx="6.5" cy="24.5"></circle><rect width="1" height="1" fill="#0693e3" x="6" y="26"></rect><rect width="1" height="1" fill="#0693e3" x="6" y="27"></rect><rect width="1" height="1" fill="#0693e3" x="6" y="28"></rect><rect width="1" height="1" fill="#0693e3" x="6" y="29"></rect><rect width="1" height="1" fill="#0693e3" x="6" y="30"></rect><rect width="1" height="1" fill="#0693e3" x="6" y="31"></rect><rect width="1" height="1" fill="#0693e3" x="6" y="32"></rect><circle opacity="1" r="0.5" fill="#8ed1fc" cx="7.5" cy="8.5"></circle><circle opacity="1" r="0.5" fill="#8ed1fc" cx="7.5" cy="10.5"></circle><circle opacity="1" r="0.5" fill="#8ed1fc" cx="7.5" cy="14.5"></circle><circle opacity="1" r="0.5" fill="#8ed1fc" cx="7.5" cy="17.5"></circle><circle opacity="1" r="0.5" fill="#8ed1fc" cx="7.5" cy="18.5"></circle><circle opacity="1" r="0.5" fill="#8ed1fc" cx="7.5" cy="19.5"></circle><circle opacity="1" r="0.5" fill="#8ed1fc" cx="7.5" cy="20.5"></circle><circle opacity="1" r="0.5" fill="#8ed1fc" cx="7.5" cy="21.5"></circle><circle opacity="1" r="0.5" fill="#8ed1fc" cx="7.5" cy="23.5"></circle><circle opacity="1" r="0.5" fill="#8ed1fc" cx="7.5" cy="24.5"></circle><circle opacity="1" r="0.5" fill="#8ed1fc" cx="8.5" cy="0.5"></circle><circle opacity="1" r="0.5" fill="#8ed1fc" cx="8.5" cy="4.5"></circle><circle opacity="1" r="0.5" fill="#8ed1fc" cx="8.5" cy="6.5"></circle><circle opacity="1" r="0.5" fill="#8ed1fc" cx="8.5" cy="7.5"></circle><circle opacity="1" r="0.5" fill="#8ed1fc" cx="8.5" cy="8.5"></circle><circle opacity="1" r="0.5" fill="#8ed1fc" cx="8.5" cy="9.5"></circle><circle opacity="1" r="0.5" fill="#8ed1fc" cx="8.5" cy="10.5"></circle><circle opacity="1" r="0.5" fill="#8ed1fc" cx="8.5" cy="15.5"></circle><circle opacity="1" r="0.5" fill="#8ed1fc" cx="8.5" cy="16.5"></circle><circle opacity="1" r="0.5" fill="#8ed1fc" cx="8.5" cy="17.5"></circle><circle opacity="1" r="0.5" fill="#8ed1fc" cx="8.5" cy="20.5"></circle><circle opacity="1" r="0.5" fill="#8ed1fc" cx="8.5" cy="21.5"></circle><circle opacity="1" r="0.5" fill="#8ed1fc" cx="8.5" cy="22.5"></circle><circle opacity="1" r="0.5" fill="#8ed1fc" cx="8.5" cy="24.5"></circle><circle opacity="1" r="0.5" fill="#8ed1fc" cx="8.5" cy="25.5"></circle><circle opacity="1" r="0.5" fill="#8ed1fc" cx="8.5" cy="26.5"></circle><circle opacity="1" r="0.5" fill="#8ed1fc" cx="8.5" cy="27.5"></circle><circle opacity="1" r="0.5" fill="#8ed1fc" cx="8.5" cy="28.5"></circle><circle opacity="1" r="0.5" fill="#8ed1fc" cx="8.5" cy="29.5"></circle><circle opacity="1" r="0.5" fill="#8ed1fc" cx="8.5" cy="32.5"></circle><circle opacity="1" r="0.5" fill="#8ed1fc" cx="9.5" cy="3.5"></circle><circle opacity="1" r="0.5" fill="#8ed1fc" cx="9.5" cy="4.5"></circle><circle opacity="1" r="0.5" fill="#8ed1fc" cx="9.5" cy="5.5"></circle><circle opacity="1" r="0.5" fill="#8ed1fc" cx="9.5" cy="7.5"></circle><circle opacity="1" r="0.5" fill="#8ed1fc" cx="9.5" cy="14.5"></circle><circle opacity="1" r="0.5" fill="#8ed1fc" cx="9.5" cy="15.5"></circle><circle opacity="1" r="0.5" fill="#8ed1fc" cx="9.5" cy="17.5"></circle><circle opacity="1" r="0.5" fill="#8ed1fc" cx="9.5" cy="18.5"></circle><circle opacity="1" r="0.5" fill="#8ed1fc" cx="9.5" cy="21.5"></circle><circle opacity="1" r="0.5" fill="#8ed1fc" cx="9.5" cy="22.5"></circle><circle opacity="1" r="0.5" fill="#8ed1fc" cx="9.5" cy="23.5"></circle><circle opacity="1" r="0.5" fill="#8ed1fc" cx="9.5" cy="25.5"></circle><circle opacity="1" r="0.5" fill="#8ed1fc" cx="9.5" cy="29.5"></circle><circle opacity="1" r="0.5" fill="#8ed1fc" cx="9.5" cy="30.5"></circle><circle opacity="1" r="0.5" fill="#8ed1fc" cx="10.5" cy="1.5"></circle><circle opacity="1" r="0.5" fill="#8ed1fc" cx="10.5" cy="3.5"></circle><circle opacity="1" r="0.5" fill="#8ed1fc" cx="10.5" cy="6.5"></circle><circle opacity="1" r="0.5" fill="#8ed1fc" cx="10.5" cy="7.5"></circle><circle opacity="1" r="0.5" fill="#8ed1fc" cx="10.5" cy="10.5"></circle><circle opacity="1" r="0.5" fill="#8ed1fc" cx="10.5" cy="13.5"></circle><circle opacity="1" r="0.5" fill="#8ed1fc" cx="10.5" cy="14.5"></circle><circle opacity="1" r="0.5" fill="#8ed1fc" cx="10.5" cy="15.5"></circle><circle opacity="1" r="0.5" fill="#8ed1fc" cx="10.5" cy="16.5"></circle><circle opacity="1" r="0.5" fill="#8ed1fc" cx="10.5" cy="18.5"></circle><circle opacity="1" r="0.5" fill="#8ed1fc" cx="10.5" cy="20.5"></circle><circle opacity="1" r="0.5" fill="#8ed1fc" cx="10.5" cy="23.5"></circle><circle opacity="1" r="0.5" fill="#8ed1fc" cx="10.5" cy="24.5"></circle><circle opacity="1" r="0.5" fill="#8ed1fc" cx="10.5" cy="25.5"></circle><circle opacity="1" r="0.5" fill="#8ed1fc" cx="10.5" cy="26.5"></circle><circle opacity="1" r="0.5" fill="#8ed1fc" cx="10.5" cy="29.5"></circle><circle opacity="1" r="0.5" fill="#8ed1fc" cx="10.5" cy="31.5"></circle><circle opacity="1" r="0.5" fill="#8ed1fc" cx="11.5" cy="0.5"></circle><circle opacity="1" r="0.5" fill="#8ed1fc" cx="11.5" cy="1.5"></circle><circle opacity="1" r="0.5" fill="#8ed1fc" cx="11.5" cy="3.5"></circle><circle opacity="1" r="0.5" fill="#8ed1fc" cx="11.5" cy="5.5"></circle><circle opacity="1" r="0.5" fill="#8ed1fc" cx="11.5" cy="7.5"></circle><circle opacity="1" r="0.5" fill="#8ed1fc" cx="11.5" cy="9.5"></circle><circle opacity="1" r="0.5" fill="#8ed1fc" cx="11.5" cy="10.5"></circle><circle opacity="1" r="0.5" fill="#8ed1fc" cx="11.5" cy="13.5"></circle><circle opacity="1" r="0.5" fill="#8ed1fc" cx="11.5" cy="15.5"></circle><circle opacity="1" r="0.5" fill="#8ed1fc" cx="11.5" cy="16.5"></circle><circle opacity="1" r="0.5" fill="#8ed1fc" cx="11.5" cy="19.5"></circle><circle opacity="1" r="0.5" fill="#8ed1fc" cx="11.5" cy="20.5"></circle><circle opacity="1" r="0.5" fill="#8ed1fc" cx="11.5" cy="22.5"></circle><circle opacity="1" r="0.5" fill="#8ed1fc" cx="11.5" cy="23.5"></circle><circle opacity="1" r="0.5" fill="#8ed1fc" cx="11.5" cy="32.5"></circle><circle opacity="1" r="0.5" fill="#8ed1fc" cx="12.5" cy="0.5"></circle><circle opacity="1" r="0.5" fill="#8ed1fc" cx="12.5" cy="3.5"></circle><circle opacity="1" r="0.5" fill="#8ed1fc" cx="12.5" cy="4.5"></circle><circle opacity="1" r="0.5" fill="#8ed1fc" cx="12.5" cy="6.5"></circle><circle opacity="1" r="0.5" fill="#8ed1fc" cx="12.5" cy="7.5"></circle><circle opacity="1" r="0.5" fill="#8ed1fc" cx="12.5" cy="12.5"></circle><circle opacity="1" r="0.5" fill="#8ed1fc" cx="12.5" cy="13.5"></circle><circle opacity="1" r="0.5" fill="#8ed1fc" cx="12.5" cy="15.5"></circle><circle opacity="1" r="0.5" fill="#8ed1fc" cx="12.5" cy="16.5"></circle><circle opacity="1" r="0.5" fill="#8ed1fc" cx="12.5" cy="22.5"></circle><circle opacity="1" r="0.5" fill="#8ed1fc" cx="12.5" cy="24.5"></circle><circle opacity="1" r="0.5" fill="#8ed1fc" cx="12.5" cy="26.5"></circle><circle opacity="1" r="0.5" fill="#8ed1fc" cx="12.5" cy="28.5"></circle><circle opacity="1" r="0.5" fill="#8ed1fc" cx="12.5" cy="29.5"></circle><circle opacity="1" r="0.5" fill="#8ed1fc" cx="12.5" cy="31.5"></circle><circle opacity="1" r="0.5" fill="#8ed1fc" cx="13.5" cy="0.5"></circle><circle opacity="1" r="0.5" fill="#8ed1fc" cx="13.5" cy="1.5"></circle><circle opacity="1" r="0.5" fill="#8ed1fc" cx="13.5" cy="3.5"></circle><circle opacity="1" r="0.5" fill="#8ed1fc" cx="13.5" cy="5.5"></circle><circle opacity="1" r="0.5" fill="#8ed1fc" cx="13.5" cy="8.5"></circle><circle opacity="1" r="0.5" fill="#8ed1fc" cx="13.5" cy="9.5"></circle><circle opacity="1" r="0.5" fill="#8ed1fc" cx="13.5" cy="10.5"></circle><circle opacity="1" r="0.5" fill="#8ed1fc" cx="13.5" cy="11.5"></circle><circle opacity="1" r="0.5" fill="#8ed1fc" cx="13.5" cy="12.5"></circle><circle opacity="1" r="0.5" fill="#8ed1fc" cx="13.5" cy="13.5"></circle><circle opacity="1" r="0.5" fill="#8ed1fc" cx="13.5" cy="14.5"></circle><circle opacity="1" r="0.5" fill="#8ed1fc" cx="13.5" cy="18.5"></circle><circle opacity="1" r="0.5" fill="#8ed1fc" cx="13.5" cy="19.5"></circle><circle opacity="1" r="0.5" fill="#8ed1fc" cx="13.5" cy="20.5"></circle><circle opacity="1" r="0.5" fill="#8ed1fc" cx="13.5" cy="23.5"></circle><circle opacity="1" r="0.5" fill="#8ed1fc" cx="13.5" cy="27.5"></circle><circle opacity="1" r="0.5" fill="#8ed1fc" cx="13.5" cy="29.5"></circle><circle opacity="1" r="0.5" fill="#8ed1fc" cx="13.5" cy="30.5"></circle><circle opacity="1" r="0.5" fill="#8ed1fc" cx="14.5" cy="3.5"></circle><circle opacity="1" r="0.5" fill="#8ed1fc" cx="14.5" cy="4.5"></circle><circle opacity="1" r="0.5" fill="#8ed1fc" cx="14.5" cy="6.5"></circle><circle opacity="1" r="0.5" fill="#8ed1fc" cx="14.5" cy="9.5"></circle><circle opacity="1" r="0.5" fill="#8ed1fc" cx="14.5" cy="11.5"></circle><circle opacity="1" r="0.5" fill="#8ed1fc" cx="14.5" cy="13.5"></circle><circle opacity="1" r="0.5" fill="#8ed1fc" cx="14.5" cy="14.5"></circle><circle opacity="1" r="0.5" fill="#8ed1fc" cx="14.5" cy="15.5"></circle><circle opacity="1" r="0.5" fill="#8ed1fc" cx="14.5" cy="18.5"></circle><circle opacity="1" r="0.5" fill="#8ed1fc" cx="14.5" cy="20.5"></circle><circle opacity="1" r="0.5" fill="#8ed1fc" cx="14.5" cy="21.5"></circle><circle opacity="1" r="0.5" fill="#8ed1fc" cx="14.5" cy="22.5"></circle><circle opacity="1" r="0.5" fill="#8ed1fc" cx="14.5" cy="23.5"></circle><circle opacity="1" r="0.5" fill="#8ed1fc" cx="14.5" cy="24.5"></circle><circle opacity="1" r="0.5" fill="#8ed1fc" cx="14.5" cy="25.5"></circle><circle opacity="1" r="0.5" fill="#8ed1fc" cx="14.5" cy="26.5"></circle><circle opacity="1" r="0.5" fill="#8ed1fc" cx="14.5" cy="28.5"></circle><circle opacity="1" r="0.5" fill="#8ed1fc" cx="14.5" cy="29.5"></circle><circle opacity="1" r="0.5" fill="#8ed1fc" cx="14.5" cy="30.5"></circle><circle opacity="1" r="0.5" fill="#8ed1fc" cx="14.5" cy="31.5"></circle><circle opacity="1" r="0.5" fill="#8ed1fc" cx="15.5" cy="0.5"></circle><circle opacity="1" r="0.5" fill="#8ed1fc" cx="15.5" cy="1.5"></circle><circle opacity="1" r="0.5" fill="#8ed1fc" cx="15.5" cy="2.5"></circle><circle opacity="1" r="0.5" fill="#8ed1fc" cx="15.5" cy="3.5"></circle><circle opacity="1" r="0.5" fill="#8ed1fc" cx="15.5" cy="7.5"></circle><circle opacity="1" r="0.5" fill="#8ed1fc" cx="15.5" cy="8.5"></circle><circle opacity="1" r="0.5" fill="#8ed1fc" cx="15.5" cy="9.5"></circle><circle opacity="1" r="0.5" fill="#8ed1fc" cx="15.5" cy="14.5"></circle><circle opacity="1" r="0.5" fill="#8ed1fc" cx="15.5" cy="15.5"></circle><circle opacity="1" r="0.5" fill="#8ed1fc" cx="15.5" cy="16.5"></circle><circle opacity="1" r="0.5" fill="#8ed1fc" cx="15.5" cy="17.5"></circle><circle opacity="1" r="0.5" fill="#8ed1fc" cx="15.5" cy="21.5"></circle><circle opacity="1" r="0.5" fill="#8ed1fc" cx="15.5" cy="22.5"></circle><circle opacity="1" r="0.5" fill="#8ed1fc" cx="15.5" cy="24.5"></circle><circle opacity="1" r="0.5" fill="#8ed1fc" cx="15.5" cy="25.5"></circle><circle opacity="1" r="0.5" fill="#8ed1fc" cx="15.5" cy="26.5"></circle><circle opacity="1" r="0.5" fill="#8ed1fc" cx="16.5" cy="0.5"></circle><circle opacity="1" r="0.5" fill="#8ed1fc" cx="16.5" cy="3.5"></circle><circle opacity="1" r="0.5" fill="#8ed1fc" cx="16.5" cy="6.5"></circle><circle opacity="1" r="0.5" fill="#8ed1fc" cx="16.5" cy="7.5"></circle><circle opacity="1" r="0.5" fill="#8ed1fc" cx="16.5" cy="11.5"></circle><circle opacity="1" r="0.5" fill="#8ed1fc" cx="16.5" cy="12.5"></circle><circle opacity="1" r="0.5" fill="#8ed1fc" cx="16.5" cy="13.5"></circle><circle opacity="1" r="0.5" fill="#8ed1fc" cx="16.5" cy="16.5"></circle><circle opacity="1" r="0.5" fill="#8ed1fc" cx="16.5" cy="17.5"></circle><circle opacity="1" r="0.5" fill="#8ed1fc" cx="16.5" cy="19.5"></circle><circle opacity="1" r="0.5" fill="#8ed1fc" cx="16.5" cy="20.5"></circle><circle opacity="1" r="0.5" fill="#8ed1fc" cx="16.5" cy="21.5"></circle><circle opacity="1" r="0.5" fill="#8ed1fc" cx="16.5" cy="22.5"></circle><circle opacity="1" r="0.5" fill="#8ed1fc" cx="16.5" cy="23.5"></circle><circle opacity="1" r="0.5" fill="#8ed1fc" cx="16.5" cy="24.5"></circle><circle opacity="1" r="0.5" fill="#8ed1fc" cx="16.5" cy="26.5"></circle><circle opacity="1" r="0.5" fill="#8ed1fc" cx="16.5" cy="28.5"></circle><circle opacity="1" r="0.5" fill="#8ed1fc" cx="16.5" cy="31.5"></circle><circle opacity="1" r="0.5" fill="#8ed1fc" cx="17.5" cy="1.5"></circle><circle opacity="1" r="0.5" fill="#8ed1fc" cx="17.5" cy="3.5"></circle><circle opacity="1" r="0.5" fill="#8ed1fc" cx="17.5" cy="5.5"></circle><circle opacity="1" r="0.5" fill="#8ed1fc" cx="17.5" cy="10.5"></circle><circle opacity="1" r="0.5" fill="#8ed1fc" cx="17.5" cy="11.5"></circle><circle opacity="1" r="0.5" fill="#8ed1fc" cx="17.5" cy="12.5"></circle><circle opacity="1" r="0.5" fill="#8ed1fc" cx="17.5" cy="15.5"></circle><circle opacity="1" r="0.5" fill="#8ed1fc" cx="17.5" cy="18.5"></circle><circle opacity="1" r="0.5" fill="#8ed1fc" cx="17.5" cy="23.5"></circle><circle opacity="1" r="0.5" fill="#8ed1fc" cx="17.5" cy="29.5"></circle><circle opacity="1" r="0.5" fill="#8ed1fc" cx="17.5" cy="30.5"></circle><circle opacity="1" r="0.5" fill="#8ed1fc" cx="17.5" cy="31.5"></circle><circle opacity="1" r="0.5" fill="#8ed1fc" cx="18.5" cy="1.5"></circle><circle opacity="1" r="0.5" fill="#8ed1fc" cx="18.5" cy="4.5"></circle><circle opacity="1" r="0.5" fill="#8ed1fc" cx="18.5" cy="5.5"></circle><circle opacity="1" r="0.5" fill="#8ed1fc" cx="18.5" cy="6.5"></circle><circle opacity="1" r="0.5" fill="#8ed1fc" cx="18.5" cy="11.5"></circle><circle opacity="1" r="0.5" fill="#8ed1fc" cx="18.5" cy="12.5"></circle><circle opacity="1" r="0.5" fill="#8ed1fc" cx="18.5" cy="14.5"></circle><circle opacity="1" r="0.5" fill="#8ed1fc" cx="18.5" cy="15.5"></circle><circle opacity="1" r="0.5" fill="#8ed1fc" cx="18.5" cy="16.5"></circle><circle opacity="1" r="0.5" fill="#8ed1fc" cx="18.5" cy="17.5"></circle><circle opacity="1" r="0.5" fill="#8ed1fc" cx="18.5" cy="20.5"></circle><circle opacity="1" r="0.5" fill="#8ed1fc" cx="18.5" cy="21.5"></circle><circle opacity="1" r="0.5" fill="#8ed1fc" cx="18.5" cy="22.5"></circle><circle opacity="1" r="0.5" fill="#8ed1fc" cx="18.5" cy="23.5"></circle><circle opacity="1" r="0.5" fill="#8ed1fc" cx="18.5" cy="27.5"></circle><circle opacity="1" r="0.5" fill="#8ed1fc" cx="18.5" cy="29.5"></circle><circle opacity="1" r="0.5" fill="#8ed1fc" cx="18.5" cy="31.5"></circle><circle opacity="1" r="0.5" fill="#8ed1fc" cx="19.5" cy="2.5"></circle><circle opacity="1" r="0.5" fill="#8ed1fc" cx="19.5" cy="3.5"></circle><circle opacity="1" r="0.5" fill="#8ed1fc" cx="19.5" cy="5.5"></circle><circle opacity="1" r="0.5" fill="#8ed1fc" cx="19.5" cy="8.5"></circle><circle opacity="1" r="0.5" fill="#8ed1fc" cx="19.5" cy="9.5"></circle><circle opacity="1" r="0.5" fill="#8ed1fc" cx="19.5" cy="10.5"></circle><circle opacity="1" r="0.5" fill="#8ed1fc" cx="19.5" cy="13.5"></circle><circle opacity="1" r="0.5" fill="#8ed1fc" cx="19.5" cy="15.5"></circle><circle opacity="1" r="0.5" fill="#8ed1fc" cx="19.5" cy="16.5"></circle><circle opacity="1" r="0.5" fill="#8ed1fc" cx="19.5" cy="17.5"></circle><circle opacity="1" r="0.5" fill="#8ed1fc" cx="19.5" cy="18.5"></circle><circle opacity="1" r="0.5" fill="#8ed1fc" cx="19.5" cy="19.5"></circle><circle opacity="1" r="0.5" fill="#8ed1fc" cx="19.5" cy="21.5"></circle><circle opacity="1" r="0.5" fill="#8ed1fc" cx="19.5" cy="24.5"></circle><circle opacity="1" r="0.5" fill="#8ed1fc" cx="19.5" cy="26.5"></circle><circle opacity="1" r="0.5" fill="#8ed1fc" cx="19.5" cy="27.5"></circle><circle opacity="1" r="0.5" fill="#8ed1fc" cx="19.5" cy="31.5"></circle><circle opacity="1" r="0.5" fill="#8ed1fc" cx="20.5" cy="2.5"></circle><circle opacity="1" r="0.5" fill="#8ed1fc" cx="20.5" cy="3.5"></circle><circle opacity="1" r="0.5" fill="#8ed1fc" cx="20.5" cy="4.5"></circle><circle opacity="1" r="0.5" fill="#8ed1fc" cx="20.5" cy="6.5"></circle><circle opacity="1" r="0.5" fill="#8ed1fc" cx="20.5" cy="7.5"></circle><circle opacity="1" r="0.5" fill="#8ed1fc" cx="20.5" cy="10.5"></circle><circle opacity="1" r="0.5" fill="#8ed1fc" cx="20.5" cy="11.5"></circle><circle opacity="1" r="0.5" fill="#8ed1fc" cx="20.5" cy="13.5"></circle><circle opacity="1" r="0.5" fill="#8ed1fc" cx="20.5" cy="14.5"></circle><circle opacity="1" r="0.5" fill="#8ed1fc" cx="20.5" cy="15.5"></circle><circle opacity="1" r="0.5" fill="#8ed1fc" cx="20.5" cy="18.5"></circle><circle opacity="1" r="0.5" fill="#8ed1fc" cx="20.5" cy="19.5"></circle><circle opacity="1" r="0.5" fill="#8ed1fc" cx="20.5" cy="20.5"></circle><circle opacity="1" r="0.5" fill="#8ed1fc" cx="20.5" cy="23.5"></circle><circle opacity="1" r="0.5" fill="#8ed1fc" cx="20.5" cy="24.5"></circle><circle opacity="1" r="0.5" fill="#8ed1fc" cx="20.5" cy="26.5"></circle><circle opacity="1" r="0.5" fill="#8ed1fc" cx="20.5" cy="28.5"></circle><circle opacity="1" r="0.5" fill="#8ed1fc" cx="20.5" cy="29.5"></circle><circle opacity="1" r="0.5" fill="#8ed1fc" cx="20.5" cy="31.5"></circle><circle opacity="1" r="0.5" fill="#8ed1fc" cx="20.5" cy="32.5"></circle><circle opacity="1" r="0.5" fill="#8ed1fc" cx="21.5" cy="0.5"></circle><circle opacity="1" r="0.5" fill="#8ed1fc" cx="21.5" cy="2.5"></circle><circle opacity="1" r="0.5" fill="#8ed1fc" cx="21.5" cy="8.5"></circle><circle opacity="1" r="0.5" fill="#8ed1fc" cx="21.5" cy="9.5"></circle><circle opacity="1" r="0.5" fill="#8ed1fc" cx="21.5" cy="11.5"></circle><circle opacity="1" r="0.5" fill="#8ed1fc" cx="21.5" cy="13.5"></circle><circle opacity="1" r="0.5" fill="#8ed1fc" cx="21.5" cy="16.5"></circle><circle opacity="1" r="0.5" fill="#8ed1fc" cx="21.5" cy="17.5"></circle><circle opacity="1" r="0.5" fill="#8ed1fc" cx="21.5" cy="19.5"></circle><circle opacity="1" r="0.5" fill="#8ed1fc" cx="21.5" cy="22.5"></circle><circle opacity="1" r="0.5" fill="#8ed1fc" cx="21.5" cy="23.5"></circle><circle opacity="1" r="0.5" fill="#8ed1fc" cx="21.5" cy="25.5"></circle><circle opacity="1" r="0.5" fill="#8ed1fc" cx="21.5" cy="27.5"></circle><circle opacity="1" r="0.5" fill="#8ed1fc" cx="21.5" cy="29.5"></circle><circle opacity="1" r="0.5" fill="#8ed1fc" cx="21.5" cy="31.5"></circle><circle opacity="1" r="0.5" fill="#8ed1fc" cx="22.5" cy="3.5"></circle><circle opacity="1" r="0.5" fill="#8ed1fc" cx="22.5" cy="5.5"></circle><circle opacity="1" r="0.5" fill="#8ed1fc" cx="22.5" cy="6.5"></circle><circle opacity="1" r="0.5" fill="#8ed1fc" cx="22.5" cy="9.5"></circle><circle opacity="1" r="0.5" fill="#8ed1fc" cx="22.5" cy="10.5"></circle><circle opacity="1" r="0.5" fill="#8ed1fc" cx="22.5" cy="11.5"></circle><circle opacity="1" r="0.5" fill="#8ed1fc" cx="22.5" cy="13.5"></circle><circle opacity="1" r="0.5" fill="#8ed1fc" cx="22.5" cy="14.5"></circle><circle opacity="1" r="0.5" fill="#8ed1fc" cx="22.5" cy="16.5"></circle><circle opacity="1" r="0.5" fill="#8ed1fc" cx="22.5" cy="19.5"></circle><circle opacity="1" r="0.5" fill="#8ed1fc" cx="22.5" cy="21.5"></circle><circle opacity="1" r="0.5" fill="#8ed1fc" cx="22.5" cy="22.5"></circle><circle opacity="1" r="0.5" fill="#8ed1fc" cx="22.5" cy="23.5"></circle><circle opacity="1" r="0.5" fill="#8ed1fc" cx="22.5" cy="24.5"></circle><circle opacity="1" r="0.5" fill="#8ed1fc" cx="22.5" cy="28.5"></circle><circle opacity="1" r="0.5" fill="#8ed1fc" cx="22.5" cy="30.5"></circle><circle opacity="1" r="0.5" fill="#8ed1fc" cx="22.5" cy="31.5"></circle><circle opacity="1" r="0.5" fill="#8ed1fc" cx="23.5" cy="2.5"></circle><circle opacity="1" r="0.5" fill="#8ed1fc" cx="23.5" cy="3.5"></circle><circle opacity="1" r="0.5" fill="#8ed1fc" cx="23.5" cy="4.5"></circle><circle opacity="1" r="0.5" fill="#8ed1fc" cx="23.5" cy="7.5"></circle><circle opacity="1" r="0.5" fill="#8ed1fc" cx="23.5" cy="10.5"></circle><circle opacity="1" r="0.5" fill="#8ed1fc" cx="23.5" cy="11.5"></circle><circle opacity="1" r="0.5" fill="#8ed1fc" cx="23.5" cy="12.5"></circle><circle opacity="1" r="0.5" fill="#8ed1fc" cx="23.5" cy="17.5"></circle><circle opacity="1" r="0.5" fill="#8ed1fc" cx="23.5" cy="18.5"></circle><circle opacity="1" r="0.5" fill="#8ed1fc" cx="23.5" cy="19.5"></circle><circle opacity="1" r="0.5" fill="#8ed1fc" cx="23.5" cy="20.5"></circle><circle opacity="1" r="0.5" fill="#8ed1fc" cx="23.5" cy="21.5"></circle><circle opacity="1" r="0.5" fill="#8ed1fc" cx="23.5" cy="25.5"></circle><circle opacity="1" r="0.5" fill="#8ed1fc" cx="23.5" cy="27.5"></circle><circle opacity="1" r="0.5" fill="#8ed1fc" cx="23.5" cy="31.5"></circle><circle opacity="1" r="0.5" fill="#8ed1fc" cx="24.5" cy="0.5"></circle><circle fill="#8ed1fc" cx="24.5" cy="1.5" r="0.5" opacity="1"></circle><circle fill="#8ed1fc" cx="24.5" cy="6.5" r="0.5" opacity="1"></circle><circle opacity="1" r="0.5" fill="#8ed1fc" cx="24.5" cy="10.5"></circle><circle opacity="1" r="0.5" fill="#8ed1fc" cx="24.5" cy="12.5"></circle><circle opacity="1" r="0.5" fill="#8ed1fc" cx="24.5" cy="14.5"></circle><circle opacity="1" r="0.5" fill="#8ed1fc" cx="24.5" cy="15.5"></circle><circle opacity="1" r="0.5" fill="#8ed1fc" cx="24.5" cy="16.5"></circle><circle opacity="1" r="0.5" fill="#8ed1fc" cx="24.5" cy="17.5"></circle><circle opacity="1" r="0.5" fill="#8ed1fc" cx="24.5" cy="20.5"></circle><circle opacity="1" r="0.5" fill="#8ed1fc" cx="24.5" cy="21.5"></circle><circle opacity="1" r="0.5" fill="#8ed1fc" cx="24.5" cy="22.5"></circle><circle opacity="1" r="0.5" fill="#8ed1fc" cx="24.5" cy="24.5"></circle><circle opacity="1" r="0.5" fill="#8ed1fc" cx="24.5" cy="25.5"></circle><circle opacity="1" r="0.5" fill="#8ed1fc" cx="24.5" cy="26.5"></circle><circle opacity="1" r="0.5" fill="#8ed1fc" cx="24.5" cy="27.5"></circle><circle opacity="1" r="0.5" fill="#8ed1fc" cx="24.5" cy="28.5"></circle><circle opacity="1" r="0.5" fill="#8ed1fc" cx="24.5" cy="29.5"></circle><circle opacity="1" r="0.5" fill="#8ed1fc" cx="25.5" cy="8.5"></circle><circle opacity="1" r="0.5" fill="#8ed1fc" cx="25.5" cy="11.5"></circle><circle opacity="1" r="0.5" fill="#8ed1fc" cx="25.5" cy="13.5"></circle><circle opacity="1" r="0.5" fill="#8ed1fc" cx="25.5" cy="14.5"></circle><circle opacity="1" r="0.5" fill="#8ed1fc" cx="25.5" cy="15.5"></circle><circle opacity="1" r="0.5" fill="#8ed1fc" cx="25.5" cy="17.5"></circle><circle opacity="1" r="0.5" fill="#8ed1fc" cx="25.5" cy="21.5"></circle><circle opacity="1" r="0.5" fill="#8ed1fc" cx="25.5" cy="22.5"></circle><circle opacity="1" r="0.5" fill="#8ed1fc" cx="25.5" cy="24.5"></circle><circle opacity="1" r="0.5" fill="#8ed1fc" cx="25.5" cy="28.5"></circle><circle opacity="1" r="0.5" fill="#8ed1fc" cx="25.5" cy="30.5"></circle><rect width="1" height="1" fill="#0693e3" x="26" y="0"></rect><rect width="1" height="1" fill="#0693e3" x="26" y="1"></rect><rect width="1" height="1" fill="#0693e3" x="26" y="2"></rect><rect width="1" height="1" fill="#0693e3" x="26" y="3"></rect><rect width="1" height="1" fill="#0693e3" x="26" y="4"></rect><rect width="1" height="1" fill="#0693e3" x="26" y="5"></rect><rect width="1" height="1" fill="#0693e3" x="26" y="6"></rect><circle opacity="1" r="0.5" fill="#8ed1fc" cx="26.5" cy="8.5"></circle><circle opacity="1" r="0.5" fill="#8ed1fc" cx="26.5" cy="12.5"></circle><circle opacity="1" r="0.5" fill="#8ed1fc" cx="26.5" cy="13.5"></circle><circle opacity="1" r="0.5" fill="#8ed1fc" cx="26.5" cy="15.5"></circle><circle opacity="1" r="0.5" fill="#8ed1fc" cx="26.5" cy="18.5"></circle><circle opacity="1" r="0.5" fill="#8ed1fc" cx="26.5" cy="24.5"></circle><circle opacity="1" r="0.5" fill="#8ed1fc" cx="26.5" cy="26.5"></circle><circle opacity="1" r="0.5" fill="#8ed1fc" cx="26.5" cy="28.5"></circle><circle opacity="1" r="0.5" fill="#8ed1fc" cx="26.5" cy="29.5"></circle><circle opacity="1" r="0.5" fill="#8ed1fc" cx="26.5" cy="31.5"></circle><rect width="1" height="1" fill="#0693e3" x="27" y="0"></rect><rect width="1" height="1" fill="#0693e3" x="27" y="6"></rect><circle opacity="1" r="0.5" fill="#8ed1fc" cx="27.5" cy="9.5"></circle><circle opacity="1" r="0.5" fill="#8ed1fc" cx="27.5" cy="14.5"></circle><circle opacity="1" r="0.5" fill="#8ed1fc" cx="27.5" cy="15.5"></circle><circle opacity="1" r="0.5" fill="#8ed1fc" cx="27.5" cy="16.5"></circle><circle opacity="1" r="0.5" fill="#8ed1fc" cx="27.5" cy="19.5"></circle><circle opacity="1" r="0.5" fill="#8ed1fc" cx="27.5" cy="20.5"></circle><circle opacity="1" r="0.5" fill="#8ed1fc" cx="27.5" cy="22.5"></circle><circle opacity="1" r="0.5" fill="#8ed1fc" cx="27.5" cy="23.5"></circle><circle opacity="1" r="0.5" fill="#8ed1fc" cx="27.5" cy="24.5"></circle><circle opacity="1" r="0.5" fill="#8ed1fc" cx="27.5" cy="28.5"></circle><circle opacity="1" r="0.5" fill="#8ed1fc" cx="27.5" cy="31.5"></circle><rect width="1" height="1" fill="#0693e3" x="28" y="0"></rect><rect width="1" height="1" fill="#0693e3" x="28" y="2"></rect><rect width="1" height="1" fill="#0693e3" x="28" y="3"></rect><rect width="1" height="1" fill="#0693e3" x="28" y="4"></rect><rect width="1" height="1" fill="#0693e3" x="28" y="6"></rect><circle opacity="1" r="0.5" fill="#8ed1fc" cx="28.5" cy="8.5"></circle><circle opacity="1" r="0.5" fill="#8ed1fc" cx="28.5" cy="9.5"></circle><circle opacity="1" r="0.5" fill="#8ed1fc" cx="28.5" cy="10.5"></circle><circle opacity="1" r="0.5" fill="#8ed1fc" cx="28.5" cy="14.5"></circle><circle opacity="1" r="0.5" fill="#8ed1fc" cx="28.5" cy="16.5"></circle><circle opacity="1" r="0.5" fill="#8ed1fc" cx="28.5" cy="22.5"></circle><circle opacity="1" r="0.5" fill="#8ed1fc" cx="28.5" cy="24.5"></circle><circle opacity="1" r="0.5" fill="#8ed1fc" cx="28.5" cy="25.5"></circle><circle opacity="1" r="0.5" fill="#8ed1fc" cx="28.5" cy="26.5"></circle><circle opacity="1" r="0.5" fill="#8ed1fc" cx="28.5" cy="27.5"></circle><circle opacity="1" r="0.5" fill="#8ed1fc" cx="28.5" cy="28.5"></circle><circle opacity="1" r="0.5" fill="#8ed1fc" cx="28.5" cy="29.5"></circle><circle opacity="1" r="0.5" fill="#8ed1fc" cx="28.5" cy="32.5"></circle><rect width="1" height="1" fill="#0693e3" x="29" y="0"></rect><rect width="1" height="1" fill="#0693e3" x="29" y="2"></rect><rect width="1" height="1" fill="#0693e3" x="29" y="3"></rect><rect width="1" height="1" fill="#0693e3" x="29" y="4"></rect><rect width="1" height="1" fill="#0693e3" x="29" y="6"></rect><circle opacity="1" r="0.5" fill="#8ed1fc" cx="29.5" cy="9.5"></circle><circle opacity="1" r="0.5" fill="#8ed1fc" cx="29.5" cy="11.5"></circle><circle opacity="1" r="0.5" fill="#8ed1fc" cx="29.5" cy="17.5"></circle><circle opacity="1" r="0.5" fill="#8ed1fc" cx="29.5" cy="18.5"></circle><circle opacity="1" r="0.5" fill="#8ed1fc" cx="29.5" cy="19.5"></circle><circle opacity="1" r="0.5" fill="#8ed1fc" cx="29.5" cy="20.5"></circle><circle opacity="1" r="0.5" fill="#8ed1fc" cx="29.5" cy="21.5"></circle><circle opacity="1" r="0.5" fill="#8ed1fc" cx="29.5" cy="26.5"></circle><circle opacity="1" r="0.5" fill="#8ed1fc" cx="29.5" cy="27.5"></circle><circle opacity="1" r="0.5" fill="#8ed1fc" cx="29.5" cy="28.5"></circle><circle opacity="1" r="0.5" fill="#8ed1fc" cx="29.5" cy="29.5"></circle><circle opacity="1" r="0.5" fill="#8ed1fc" cx="29.5" cy="30.5"></circle><circle opacity="1" r="0.5" fill="#8ed1fc" cx="29.5" cy="31.5"></circle><rect width="1" height="1" fill="#0693e3" x="30" y="0"></rect><rect width="1" height="1" fill="#0693e3" x="30" y="2"></rect><rect width="1" height="1" fill="#0693e3" x="30" y="3"></rect><rect width="1" height="1" fill="#0693e3" x="30" y="4"></rect><rect width="1" height="1" fill="#0693e3" x="30" y="6"></rect><circle opacity="1" r="0.5" fill="#8ed1fc" cx="30.5" cy="11.5"></circle><circle opacity="1" r="0.5" fill="#8ed1fc" cx="30.5" cy="12.5"></circle><circle opacity="1" r="0.5" fill="#8ed1fc" cx="30.5" cy="14.5"></circle><circle opacity="1" r="0.5" fill="#8ed1fc" cx="30.5" cy="15.5"></circle><circle opacity="1" r="0.5" fill="#8ed1fc" cx="30.5" cy="17.5"></circle><circle opacity="1" r="0.5" fill="#8ed1fc" cx="30.5" cy="20.5"></circle><circle opacity="1" r="0.5" fill="#8ed1fc" cx="30.5" cy="21.5"></circle><circle opacity="1" r="0.5" fill="#8ed1fc" cx="30.5" cy="22.5"></circle><circle opacity="1" r="0.5" fill="#8ed1fc" cx="30.5" cy="23.5"></circle><circle opacity="1" r="0.5" fill="#8ed1fc" cx="30.5" cy="25.5"></circle><circle opacity="1" r="0.5" fill="#8ed1fc" cx="30.5" cy="26.5"></circle><circle opacity="1" r="0.5" fill="#8ed1fc" cx="30.5" cy="27.5"></circle><circle opacity="1" r="0.5" fill="#8ed1fc" cx="30.5" cy="28.5"></circle><circle opacity="1" r="0.5" fill="#8ed1fc" cx="30.5" cy="30.5"></circle><rect width="1" height="1" fill="#0693e3" x="31" y="0"></rect><rect width="1" height="1" fill="#0693e3" x="31" y="6"></rect><circle opacity="1" r="0.5" fill="#8ed1fc" cx="31.5" cy="9.5"></circle><circle opacity="1" r="0.5" fill="#8ed1fc" cx="31.5" cy="10.5"></circle><circle opacity="1" r="0.5" fill="#8ed1fc" cx="31.5" cy="13.5"></circle><circle opacity="1" r="0.5" fill="#8ed1fc" cx="31.5" cy="15.5"></circle><circle opacity="1" r="0.5" fill="#8ed1fc" cx="31.5" cy="16.5"></circle><circle opacity="1" r="0.5" fill="#8ed1fc" cx="31.5" cy="17.5"></circle><circle opacity="1" r="0.5" fill="#8ed1fc" cx="31.5" cy="21.5"></circle><circle opacity="1" r="0.5" fill="#8ed1fc" cx="31.5" cy="24.5"></circle><circle opacity="1" r="0.5" fill="#8ed1fc" cx="31.5" cy="26.5"></circle><rect width="1" height="1" fill="#0693e3" x="32" y="0"></rect><rect width="1" height="1" fill="#0693e3" x="32" y="1"></rect><rect width="1" height="1" fill="#0693e3" x="32" y="2"></rect><rect width="1" height="1" fill="#0693e3" x="32" y="3"></rect><rect width="1" height="1" fill="#0693e3" x="32" y="4"></rect><rect width="1" height="1" fill="#0693e3" x="32" y="5"></rect><rect width="1" height="1" fill="#0693e3" x="32" y="6"></rect><circle opacity="1" r="0.5" fill="#8ed1fc" cx="32.5" cy="8.5"></circle><circle opacity="1" r="0.5" fill="#8ed1fc" cx="32.5" cy="10.5"></circle><circle opacity="1" r="0.5" fill="#8ed1fc" cx="32.5" cy="11.5"></circle><circle opacity="1" r="0.5" fill="#8ed1fc" cx="32.5" cy="12.5"></circle><circle opacity="1" r="0.5" fill="#8ed1fc" cx="32.5" cy="16.5"></circle><circle opacity="1" r="0.5" fill="#8ed1fc" cx="32.5" cy="17.5"></circle><circle opacity="1" r="0.5" fill="#8ed1fc" cx="32.5" cy="18.5"></circle><circle opacity="1" r="0.5" fill="#8ed1fc" cx="32.5" cy="19.5"></circle><circle opacity="1" r="0.5" fill="#8ed1fc" cx="32.5" cy="20.5"></circle><circle opacity="1" r="0.5" fill="#8ed1fc" cx="32.5" cy="21.5"></circle><circle opacity="1" r="0.5" fill="#8ed1fc" cx="32.5" cy="23.5"></circle><circle opacity="1" r="0.5" fill="#8ed1fc" cx="32.5" cy="24.5"></circle><circle opacity="1" r="0.5" fill="#8ed1fc" cx="32.5" cy="25.5"></circle><circle opacity="1" r="0.5" fill="#8ed1fc" cx="32.5" cy="32.5"></circle><path d="M32.048565,-1.29480038e-15 L67.951435,1.29480038e-15 C79.0954192,-7.52316311e-16 83.1364972,1.16032014 87.2105713,3.3391588 C91.2846454,5.51799746 94.4820025,8.71535463 96.6608412,12.7894287 C98.8396799,16.8635028 100,20.9045808 100,32.048565 L100,67.951435 C100,79.0954192 98.8396799,83.1364972 96.6608412,87.2105713 C94.4820025,91.2846454 91.2846454,94.4820025 87.2105713,96.6608412 C83.1364972,98.8396799 79.0954192,100 67.951435,100 L32.048565,100 C20.9045808,100 16.8635028,98.8396799 12.7894287,96.6608412 C8.71535463,94.4820025 5.51799746,91.2846454 3.3391588,87.2105713 C1.16032014,83.1364972 5.01544207e-16,79.0954192 -8.63200256e-16,67.951435 L8.63200256e-16,32.048565 C-5.01544207e-16,20.9045808 1.16032014,16.8635028 3.3391588,12.7894287 C5.51799746,8.71535463 8.71535463,5.51799746 12.7894287,3.3391588 C16.8635028,1.16032014 20.9045808,7.52316311e-16 32.048565,-1.29480038e-15 Z" stroke="#FFF" stroke-width="13.774104683195592" fill="#FFF" transform="translate(12.870000000000001,12.870000000000001) scale(0.0726,0.0726)"></path><g><defs><path id="defs-path109" d="M32.048565,-1.29480038e-15 L67.951435,1.29480038e-15 C79.0954192,-7.52316311e-16 83.1364972,1.16032014 87.2105713,3.3391588 C91.2846454,5.51799746 94.4820025,8.71535463 96.6608412,12.7894287 C98.8396799,16.8635028 100,20.9045808 100,32.048565 L100,67.951435 C100,79.0954192 98.8396799,83.1364972 96.6608412,87.2105713 C94.4820025,91.2846454 91.2846454,94.4820025 87.2105713,96.6608412 C83.1364972,98.8396799 79.0954192,100 67.951435,100 L32.048565,100 C20.9045808,100 16.8635028,98.8396799 12.7894287,96.6608412 C8.71535463,94.4820025 5.51799746,91.2846454 3.3391588,87.2105713 C1.16032014,83.1364972 5.01544207e-16,79.0954192 -8.63200256e-16,67.951435 L8.63200256e-16,32.048565 C-5.01544207e-16,20.9045808 1.16032014,16.8635028 3.3391588,12.7894287 C5.51799746,8.71535463 8.71535463,5.51799746 12.7894287,3.3391588 C16.8635028,1.16032014 20.9045808,7.52316311e-16 32.048565,-1.29480038e-15 Z" fill="#FFF" transform="translate(12.870000000000001,12.870000000000001) scale(0.0726,0.0726)"></path>                    </defs><clipPath id="clip-path110"><use xlink:href="#defs-path109" overflow="visible"></use></clipPath><g clip-path="url(#clip-path110)"><g transform="translate(12.870000000000001,12.870000000000001) scale(0.0726,0.0726)"><g><rect width="100" height="100" fill="#009ce1"></rect><path d="M100,67.856c-.761-.1-4.8-.8-17.574-5.066-4.012-1.339-9.4-3.389-15.395-5.552A80.552,80.552,0,0,0,75.4,36.156H55.633v-7.1H79.848V25.094H55.633V13.258H45.749a1.68,1.68,0,0,0-1.733,1.707V25.094H19.524v3.963H44.016v7.1H23.8V40.12H63.013a69.579,69.579,0,0,1-5.65,13.763c-12.724-4.187-26.3-7.58-34.834-5.491C17.074,49.733,13.56,52.125,11.5,54.63,2.02,66.125,8.815,83.585,28.824,83.585c11.831,0,23.228-6.579,32.061-17.417C73.49,72.211,97.914,82.4,100,83.267ZM26.956,76.9c-15.6,0-20.215-12.255-12.5-18.958,2.573-2.266,7.276-3.372,9.782-3.621,9.268-.913,17.846,2.613,27.972,7.541C45.087,71.118,36.023,76.9,26.956,76.9Z" fill="#fff"></path></g></g></g></g></svg>