<?xml version="1.0" standalone="no"?><!DOCTYPE svg PUBLIC "-//W3C//DTD SVG 1.1//EN" "http://www.w3.org/Graphics/SVG/1.1/DTD/svg11.dtd"><svg t="1688351458684" class="icon" viewBox="0 0 4442 1024" version="1.1" xmlns="http://www.w3.org/2000/svg" p-id="2363" width="1084.47265625" height="290" xmlns:xlink="http://www.w3.org/1999/xlink"><path d="M1426.02032717 52.36871077c-18.87049287-18.87049287-43.13255481-32.34941671-67.39461794-43.13255481-18.87049287-10.78313931-40.43677028-5.39156905-51.21990838 10.7831381L1161.83342806 214.1157919l-10.78313931 13.47892384c-16.17470836 21.56627741-40.43677028 32.34941671-67.39461673 32.3494155h-26.95784767c-75.48197152 2.69578452-148.2681573 40.43677028-194.09649664 102.43981919-37.74098576 48.52412385-53.91569411 110.52717276-53.91569411 169.83443471 0 10.78313931 8.08735357 21.56627741 18.87049287 24.26206193 21.56627741 10.78313931 35.04520124 29.65363098 37.74098577 53.91569412 8.08735357 35.04520124-16.17470836 70.09040126-51.2199096 78.17775605-37.74098576 10.78313931-75.48197152-10.78313931-86.26510962-45.82833934v-2.69578573c-5.39156905-21.56627741 0-40.43677028 13.47892384-56.61147744 8.08735357-8.08735357 10.78313931-21.56627741 10.78313809-32.3494167-5.39156905-78.17775604 16.17470836-159.05129662 64.69883221-221.05434431 59.30726317-78.17775604 150.96394305-126.7018799 250.70797651-126.70187991 18.87049287 0 35.04520124-10.78313931 45.82833932-24.26206314l134.78923469-177.92178828c8.08735357-10.78313931 5.39156905-26.95784645-5.39156904-35.04520124-2.69578452-2.69578452-5.39156905-2.69578452-8.08735479-5.39157026-226.44591335-67.39461674-477.15388985 13.47892383-622.72626263 207.57542169-196.79228238 256.09954555-148.2681573 622.72626263 107.83138823 819.51854501 24.26206193 16.17470836 51.2199096 35.04520124 75.48197032 51.21990838 16.17470836 8.08735357 37.74098576 5.39156905 51.21990959-10.7831381l145.57237277-196.79228238 10.78313932-13.47892383c16.17470836-21.56627741 40.43677028-32.34941671 67.39461674-32.34941549h29.65363097c75.48197152-2.69578452 148.2681573-40.43677028 191.40071333-102.43981799 37.74098576-48.52412385 56.61147865-110.52717276 53.91569412-169.83443592 0-10.78313931-8.08735357-21.56627741-16.17470835-24.26206192-21.56627741-10.78313931-37.74098576-29.65363098-37.74098577-53.91569413-8.08735357-35.04520124 13.47892383-70.09040126 51.2199096-78.17775604 37.74098576-10.78313931 75.48197152 10.78313931 86.26510962 45.82834054 2.69578452 21.56627741 0 40.43677028-16.17470836 56.61147743-8.08735357 8.08735357-10.78313931 21.56627741-10.7831381 32.34941672 8.08735357 78.17775604-16.17470836 156.3555121-62.0030489 221.0543443-59.30726317 78.17775604-150.96394305 126.7018799-250.70797528 126.70187991-18.87049287 0-35.04520124 10.78313931-45.82833934 24.26206314l-134.78923468 177.92178828c-8.08735357 10.78313931-5.39156905 26.95784645 5.39156904 35.04520123 2.69578452 2.69578452 5.39156905 2.69578452 8.08735479 5.39156906 234.53326814 70.09040126 485.24124342-13.47892383 630.81361621-210.271205 180.61757403-258.79533007 129.39766443-622.72626263-126.70187992-819.51854501z m965.09091781 159.05129662v-13.47892384c0-8.08735357-5.39156905-16.17470836-16.17470837-18.87049288H1913.95735512c-8.08735357 0-16.17470836 5.39156905-18.87049287 16.17470836v29.65363219c0 8.08735357 5.39156905 16.17470836 16.17470835 18.87049288h388.19299449c8.08735357 0 16.17470836 5.39156905 18.87049288 16.17470714v5.39157026c-21.56627741 124.00609538-72.786187 239.92483718-153.65972635 336.97308612-2.69578452 8.08735357-13.47892383 8.08735357-21.56627741 0l-2.69578573-2.69578574c-62.00304769-80.87354058-105.1356025-172.53022045-126.70187991-272.27425269 0-10.78313931-10.78313931-13.47892383-21.5662774-13.47892384h-26.95784645c-10.78313931 0-18.87049287 10.78313931-16.17470836 21.56627741 24.26206193 113.22295728 72.786187 221.05434431 145.57237279 312.71102418 8.08735357 8.08735357 8.08735357 18.87049287 0 24.26206193-78.17775604 75.48197152-175.22600497 129.39766443-283.057392 148.26815732-10.78313931 0-13.47892383 10.78313931-13.47892383 18.87049288v26.95784766c0 10.78313931 10.78313931 18.87049287 21.5662774 18.87049289 121.31031086-21.56627741 234.53326814-78.17775604 323.49416349-167.13865141 5.39156905-8.08735357 16.17470836-8.08735357 24.26206194 0 78.17775604 75.48197152 172.53022045 132.09345017 274.9700372 164.44286567 8.08735357 2.69578452 16.17470836 0 21.56627862-8.08735357v-2.69578453l8.08735357-26.95784645c2.69578452-8.08735357-2.69578452-18.87049287-10.7831393-21.5662774-94.35246441-29.65363098-180.61757403-80.87354058-250.70797529-148.26815852-8.08735357-8.08735357-8.08735357-18.87049287 0-24.26206193 105.1356025-126.7018799 169.83443471-277.66582294 180.61757403-439.41290409z m312.71102418-62.0030477h-26.95784767c-8.08735357 0-16.17470836 5.39156905-18.87049288 16.17470836v99.74403345c0 8.08735357-5.39156905 16.17470836-16.17470836 18.87049288h-67.39461673c-8.08735357 0-16.17470836 5.39156905-16.17470836 16.17470715v32.34941671c0 10.78313931 5.39156905 16.17470836 16.17470836 18.87049289h64.69883221c8.08735357 0 16.17470836 5.39156905 16.17470836 16.17470835v140.18080373c0 8.08735357-5.39156905 16.17470836-16.17470836 18.87049289h-67.39461674c-8.08735357 0-16.17470836 5.39156905-16.17470835 16.17470835v35.04520002c0 10.78313931 5.39156905 16.17470836 16.17470835 18.87049288h64.69883222c8.08735357 0 16.17470836 5.39156905 16.17470835 16.17470836v137.48501922c0 29.65363098-10.78313931 78.17775604-86.26510961 80.87354056-8.08735357 0-16.17470836 5.39156905-16.17470835 16.17470836v29.65363097c0 10.78313931 10.78313931 18.87049287 21.56627739 18.87049289 72.786187-8.08735357 148.2681573-45.82833934 148.26815732-145.57237278v-134.78923469c0-8.08735357 5.39156905-16.17470836 16.17470835-16.17470836h59.30726317c10.78313931 0 16.17470836-8.08735357 16.17470835-16.17470715v-29.65363218c0-8.08735357-5.39156905-16.17470836-16.17470835-16.17470836h-53.91569413c-8.08735357 0-16.17470836-5.39156905-16.17470713-16.17470836V375.86287306c0-8.08735357 5.39156905-16.17470836 16.17470713-16.17470837h59.30726317c8.08735357 0 16.17470836-5.39156905 16.17470835-16.17470714v-29.6536322c0-8.08735357-5.39156905-16.17470836-16.17470835-18.87049287H2741.5632537c-8.08735357 0-16.17470836-5.39156905-16.17470713-16.17470836v-99.74403345c-2.69578452-21.56627741-10.78313931-29.65363098-21.56627741-29.65363098z m148.2681573 717.07872704c0 8.08735357 5.39156905 16.17470836 16.17470836 18.87049289h207.57542047c88.96089414 2.69578452 161.74708114-67.39461674 164.44286567-156.3555121v-431.32555052c0-8.08735357-5.39156905-16.17470836-16.17470836-16.17470713h-353.14779325c-8.08735357 0-16.17470836 5.39156905-16.17470836 16.17470713v2.69578453l-2.69578453 566.1147852z m221.05434431-45.82834054H2930.26818251c-10.78313931 0-16.17470836-5.39156905-18.87049288-16.17470715v-196.79228238c0-10.78313931 8.08735357-16.17470836 16.17470836-16.17470835h226.44591336c8.08735357 0 16.17470836 5.39156905 18.87049287 16.17470835v124.00609538c0 51.2199096-45.82833934 91.65667988-99.74403345 88.96089415 2.69578452 0 0 0 0 0z m99.74403345-460.9791815V510.65210774c0 8.08735357-5.39156905 16.17470836-16.17470835 18.87049288H2930.26818251c-10.78313931 0-16.17470836-5.39156905-18.87049288-16.17470836v-150.96394183c0-10.78313931 5.39156905-16.17470836 16.17470836-18.87049288h226.44591336c10.78313931-2.69578452 18.87049287 5.39156905 18.87049287 16.17470714 0-2.69578452 0 0 0 0z m-43.13255481-210.271205h-180.61757401c-8.08735357 0-16.17470836 5.39156905-16.17470836 16.17470836v32.3494155c0 8.08735357 5.39156905 16.17470836 16.17470836 16.17470835h183.31335854c8.08735357 0 16.17470836-8.08735357 16.17470836-16.17470835v-29.65363097c0-8.08735357-8.08735357-16.17470836-18.87049289-18.87049289 2.69578452 0 0 0 0 0z m692.8166639 29.65363098h-374.71407066c-8.08735357 0-16.17470836 5.39156905-18.87049288 13.47892384v32.34941671c0 8.08735357 5.39156905 16.17470836 16.17470713 18.87049288h377.40985641c8.08735357 0 16.17470836-5.39156905 16.17470835-16.17470836v-29.65363219c2.69578452-8.08735357-2.69578452-16.17470836-10.78313809-18.87049288h-5.39157026z m-159.05129662 323.4941635h261.49111459c8.08735357 0 16.17470836-5.39156905 16.17470836-16.17470836V456.73641362c0-8.08735357-5.39156905-16.17470836-16.17470836-16.17470835h-582.28949234c-8.08735357 0-16.17470836 5.39156905-16.17470715 16.17470835v29.65363219c0 8.08735357 5.39156905 16.17470836 16.17470715 16.17470836h183.31335975c10.78313931 0 18.87049287 8.08735357 18.87049166 16.17470714 0 5.39156905 0 8.08735357-5.39156904 13.47892383l-121.31031085 215.66277525c-2.69578452 2.69578452-5.39156905 8.08735357-8.08735358 13.47892263-10.78313931 29.65363098-5.39156905 62.00304769 13.47892263 86.26511083 18.87049287 29.65363098 51.2199096 45.82833934 86.26511082 43.13255481h326.18994681c13.47892383 0 29.65363098-8.08735357 35.04520123-21.56627741 5.39156905-13.47892383 8.08735357-26.95784645 2.69578453-37.74098576l-75.48197152-153.65972757c-2.69578452-8.08735357-10.78313931-13.47892383-18.87049289-10.78313809-2.69578452 0-5.39156905 2.69578452-5.39156904 2.69578452l-24.26206193 13.47892383c-8.08735357 2.69578452-13.47892383 10.78313931-10.78313931 18.87049167 0 2.69578452 2.69578452 5.39156905 2.69578453 8.0873548l45.82834055 86.26510961c8.08735357 10.78313931-2.69578452 24.26206193-18.87049289 24.26206193h-261.49111459c-13.47892383 0-24.26206193-5.39156905-32.34941672-13.47892263-5.39156905-8.08735357-5.39156905-16.17470836-2.69578452-24.26206193 0-2.69578452 0-2.69578452 2.69578452-2.69578573l145.57237279-253.4037598c10.78313931-16.17470836 26.95784645-24.26206193 43.13255481-24.26206193z" fill="#00a0ff" p-id="2364"></path></svg>