<?xml version="1.0" encoding="utf-8"?>
 <!DOCTYPE svg PUBLIC "-//W3C//DTD SVG 20010904//EN" "http://www.w3.org/TR/2001/REC-SVG-20010904/DTD/svg10.dtd">
<svg class="Qr-item-svg" width="100%" height="100%" viewBox="-6.6 -6.6 46.2 46.2" fill="white" xmlns="http://www.w3.org/2000/svg" xmlns:xlink="http://www.w3.org/1999/xlink"><circle cx="8.5" cy="0.5" r="0.33462684327846365" fill="#7bdcb5"></circle><circle r="0.31887860082304526" fill="#7bdcb5" cx="11.5" cy="0.5"></circle><circle cx="16.5" cy="1" r="0.4822181498628258" fill="#FFFFFF" stroke="#7bdcb5" stroke-width="0.39726234567901236"></circle><circle r="0.48155542695473247" fill="#FFFFFF" cx="18.5" cy="1" stroke="#7bdcb5" stroke-width="0.386073731138546"></circle><circle cx="24.5" cy="1" r="0.5150282921810699" fill="#FFFFFF" stroke="#7bdcb5" stroke-width="0.3709693072702332"></circle><circle fill="#FFFFFF" cx="15" cy="1.5" r="0.5147524434156379" stroke="#7bdcb5" stroke-width="0.3984338134430727"></circle><circle cx="9.5" cy="2.5" r="0.29627164780521265" fill="#7bdcb5"></circle><circle cx="16.5" cy="3" r="0.47864454732510286" fill="#FFFFFF" stroke="#7bdcb5" stroke-width="0.3668005829903978"></circle><circle cx="21.5" cy="2.5" r="0.45997192215363514" fill="#7bdcb5"></circle><circle fill="#7bdcb5" cx="24.5" cy="2.5" r="0.25167824074074074"></circle><circle fill="#00d084" cx="3.5" cy="3.5" r="1.5"></circle><circle r="3" fill="none" cx="3.5" cy="3.5" stroke="#00d084" stroke-width="1"></circle><circle r="0.5121956447187929" fill="#FFFFFF" cx="11" cy="3.5" stroke="#7bdcb5" stroke-width="0.37380606995884774"></circle><circle cx="12.5" cy="3.5" r="0.36693458504801096" fill="#7bdcb5"></circle><circle cx="16" cy="3.5" r="0.5197841649519891" fill="#FFFFFF" stroke-width="0.3984674211248286" stroke="#7bdcb5"></circle><circle cx="17.5" cy="3.5" r="0.46210455246913584" fill="#7bdcb5"></circle><circle r="0.3758830589849108" fill="#7bdcb5" cx="23.5" cy="3.5"></circle><circle r="1.5" fill="#00d084" cx="29.5" cy="3.5"></circle><circle cx="29.5" cy="3.5" r="3" fill="none" stroke-width="1" stroke="#00d084"></circle><circle cx="8.5" cy="4.5" r="0.391161908436214" fill="#7bdcb5"></circle><circle cx="11.5" cy="4.5" r="0.4256965877914952" fill="#7bdcb5"></circle><circle cx="13.5" cy="5" r="0.5125342935528121" fill="#FFFFFF" stroke="#7bdcb5" stroke-width="0.37362431412894376"></circle><circle r="0.486795481824417" fill="#FFFFFF" cx="21.5" cy="5" stroke="#7bdcb5" stroke-width="0.37627400548696843"></circle><circle cx="10.5" cy="6" r="0.5196510631001372" fill="#FFFFFF" stroke="#7bdcb5" stroke-width="0.3680831618655693"></circle><circle cx="16" cy="5.5" r="0.48629308127572013" fill="#FFFFFF" stroke="#7bdcb5" stroke-width="0.39801200274348425"></circle><circle r="0.4880647719478738" fill="#7bdcb5" cx="17.5" cy="5.5"></circle><circle r="0.5120271776406036" fill="#FFFFFF" cx="22.5" cy="6" stroke="#7bdcb5" stroke-width="0.3602762345679012"></circle><circle r="0.4971382030178326" fill="#FFFFFF" cx="24.5" cy="6" stroke="#7bdcb5" stroke-width="0.37439386145404663"></circle><circle r="0.2859889403292181" fill="#7bdcb5" cx="12.5" cy="6.5"></circle><circle r="0.4821928583676269" fill="#FFFFFF" cx="14.5" cy="7" stroke="#7bdcb5" stroke-width="0.3690733882030178"></circle><circle r="0.25022826646090535" fill="#7bdcb5" cx="16.5" cy="6.5"></circle><circle cx="18.5" cy="6.5" r="0.4259366426611797" fill="#7bdcb5"></circle><circle cx="20.5" cy="7" r="0.5129087362825789" fill="#FFFFFF" stroke="#7bdcb5" stroke-width="0.3997777777777778"></circle><circle r="0.3426333161865569" fill="#7bdcb5" cx="10.5" cy="7.5"></circle><circle r="0.5083822016460905" fill="#FFFFFF" cx="20" cy="7.5" stroke="#7bdcb5" stroke-width="0.3987388545953361"></circle><circle cx="0.5" cy="8.5" r="0.41731717249657063" fill="#7bdcb5"></circle><circle r="0.47897033607681755" fill="#FFFFFF" cx="4" cy="8.5" stroke="#7bdcb5" stroke-width="0.3909295267489712"></circle><circle cx="5.5" cy="9" r="0.47997642318244166" fill="#FFFFFF" stroke="#7bdcb5" stroke-width="0.3970224622770919"></circle><circle cx="7" cy="8.5" r="0.5179681069958848" fill="#FFFFFF" stroke="#7bdcb5" stroke-width="0.36554338134430725"></circle><circle cx="16.5" cy="8.5" r="0.4042009602194787" fill="#7bdcb5"></circle><circle cx="20.5" cy="9" r="0.48681327160493826" fill="#FFFFFF" stroke="#7bdcb5" stroke-width="0.38864420438957475"></circle><circle cx="28.5" cy="9" r="0.5059818672839507" fill="#FFFFFF" stroke="#7bdcb5" stroke-width="0.3783309327846365"></circle><circle cx="32.5" cy="8.5" r="0.4028667266803841" fill="#7bdcb5"></circle><circle cx="1.5" cy="9.5" r="0.3419249399862826" fill="#7bdcb5"></circle><circle r="0.31178840877914954" fill="#7bdcb5" cx="8.5" cy="9.5"></circle><circle cx="10.5" cy="10" r="0.48561471193415634" fill="#FFFFFF" stroke="#7bdcb5" stroke-width="0.3904014060356653"></circle><circle r="0.46836098251028807" fill="#7bdcb5" cx="17.5" cy="9.5"></circle><circle r="0.28618827160493826" fill="#7bdcb5" cx="21.5" cy="9.5"></circle><circle cx="4.5" cy="11" r="0.4816621656378601" fill="#FFFFFF" stroke="#7bdcb5" stroke-width="0.38029492455418384"></circle><circle r="0.48943265603566527" fill="#FFFFFF" cx="6" cy="10.5" stroke="#7bdcb5" stroke-width="0.3989598765432099"></circle><circle cx="19.5" cy="11" r="0.4806543638545953" fill="#FFFFFF" stroke="#7bdcb5" stroke-width="0.3614434156378601"></circle><circle cx="23" cy="10.5" r="0.4904854681069959" fill="#FFFFFF" stroke="#7bdcb5" stroke-width="0.39272393689986285"></circle><circle cx="32.5" cy="10.5" r="0.4208365483539095" fill="#7bdcb5"></circle><circle cx="1" cy="11.5" r="0.47571330589849103" fill="#FFFFFF" stroke="#7bdcb5" stroke-width="0.3960193758573388"></circle><circle r="0.477988683127572" fill="#FFFFFF" cx="12" cy="11.5" stroke="#7bdcb5" stroke-width="0.3666462620027435"></circle><circle r="0.495142103909465" fill="#FFFFFF" cx="17.5" cy="12" stroke="#7bdcb5" stroke-width="0.3618196159122085"></circle><circle cx="20.5" cy="12" r="0.5100143604252401" fill="#FFFFFF" stroke="#7bdcb5" stroke-width="0.3833058984910837"></circle><circle cx="29.5" cy="11.5" r="0.2500321502057613" fill="#7bdcb5"></circle><circle r="0.5248413923182442" fill="#FFFFFF" cx="5.5" cy="13" stroke="#7bdcb5" stroke-width="0.38828480795610426"></circle><circle cx="6.5" cy="12.5" r="0.28407278806584363" fill="#7bdcb5"></circle><circle cx="8.5" cy="13" r="0.48696459190672153" fill="#FFFFFF" stroke="#7bdcb5" stroke-width="0.3945883058984911"></circle><circle cx="23" cy="12.5" r="0.4885545267489712" fill="#FFFFFF" stroke="#7bdcb5" stroke-width="0.38497548010973937"></circle><circle r="0.4498360339506173" fill="#7bdcb5" cx="28.5" cy="12.5"></circle><circle r="0.5117899091220851" fill="#FFFFFF" cx="1" cy="13.5" stroke="#7bdcb5" stroke-width="0.3948086419753086"></circle><circle r="0.4805716306584362" fill="#FFFFFF" cx="5" cy="13.5" stroke="#7bdcb5" stroke-width="0.3858422496570645"></circle><circle r="0.49050561556927297" fill="#FFFFFF" cx="10.5" cy="14" stroke="#7bdcb5" stroke-width="0.3826371742112483"></circle><circle cx="12" cy="13.5" r="0.5210127314814815" fill="#FFFFFF" stroke="#7bdcb5" stroke-width="0.3799852537722908"></circle><circle cx="13.5" cy="14" r="0.4891227280521262" fill="#FFFFFF" stroke="#7bdcb5" stroke-width="0.3728477366255144"></circle><circle cx="18.5" cy="14" r="0.48497299382716047" fill="#FFFFFF" stroke="#7bdcb5" stroke-width="0.3755053155006859"></circle><circle r="0.2512002743484225" fill="#7bdcb5" cx="26.5" cy="13.5"></circle><circle fill="#FFFFFF" cx="2" cy="14.5" r="0.49385073731138546" stroke="#7bdcb5" stroke-width="0.39301903292181073"></circle><circle cx="5.5" cy="15" r="0.4839060356652949" fill="#FFFFFF" stroke="#7bdcb5" stroke-width="0.39648302469135804"></circle><circle r="0.49633187585733884" fill="#FFFFFF" cx="7" cy="14.5" stroke="#7bdcb5" stroke-width="0.3746747256515775"></circle><circle cx="15.5" cy="15" r="0.4952042609739369" fill="#FFFFFF" stroke="#7bdcb5" stroke-width="0.3843179012345679"></circle><circle r="0.4328264317558299" fill="#7bdcb5" cx="16.5" cy="14.5"></circle><circle cx="20.5" cy="15" r="0.5247449417009602" fill="#FFFFFF" stroke="#7bdcb5" stroke-width="0.3906150548696845"></circle><circle r="0.494238683127572" fill="#7bdcb5" cx="21.5" cy="14.5"></circle><circle cx="28.5" cy="15" r="0.5146757115912208" fill="#FFFFFF" stroke="#7bdcb5" stroke-width="0.38748765432098764"></circle><circle cx="0.5" cy="15.5" r="0.30154642489711936" fill="#7bdcb5"></circle><circle cx="3.5" cy="16" r="0.4978489368998628" fill="#FFFFFF" stroke="#7bdcb5" stroke-width="0.38282253086419754"></circle><circle r="0.5131535065157751" fill="#FFFFFF" cx="8.5" cy="16" stroke="#7bdcb5" stroke-width="0.3810641289437586"></circle><circle cx="10.5" cy="16" r="0.48239519032921807" fill="#FFFFFF" stroke="#7bdcb5" stroke-width="0.39458504801097394"></circle><circle cx="12.5" cy="16" r="0.5091550925925926" fill="#FFFFFF" stroke="#7bdcb5" stroke-width="0.3896658093278464"></circle><circle cx="15" cy="15.5" r="0.4885770318930041" fill="#FFFFFF" stroke="#7bdcb5" stroke-width="0.39243175582990397"></circle><circle cx="6.5" cy="16.5" r="0.35414308984910836" fill="#7bdcb5"></circle><circle r="0.4980900634430727" fill="#FFFFFF" cx="12" cy="16.5" stroke="#7bdcb5" stroke-width="0.3769969135802469"></circle><circle cx="22" cy="16.5" r="0.49247427983539094" fill="#FFFFFF" stroke="#7bdcb5" stroke-width="0.3910742455418382"></circle><circle cx="31.5" cy="17" r="0.5059784379286694" fill="#FFFFFF" stroke="#7bdcb5" stroke-width="0.39281378600823047"></circle><circle cx="3" cy="17.5" r="0.48354166666666665" fill="#FFFFFF" stroke="#7bdcb5" stroke-width="0.36528617969821675"></circle><circle cx="7.5" cy="18" r="0.5233802726337449" fill="#FFFFFF" stroke="#7bdcb5" stroke-width="0.3963854595336077"></circle><circle r="0.517201646090535" fill="#FFFFFF" cx="15" cy="17.5" stroke="#7bdcb5" stroke-width="0.3824610768175583"></circle><circle cx="22.5" cy="18" r="0.5131162122770919" fill="#FFFFFF" stroke="#7bdcb5" stroke-width="0.38356515775034294"></circle><circle r="0.42490676440329217" fill="#7bdcb5" cx="23.5" cy="17.5"></circle><circle cx="32.5" cy="17.5" r="0.261539780521262" fill="#7bdcb5"></circle><circle cx="5" cy="18.5" r="0.4765117026748971" fill="#FFFFFF" stroke="#7bdcb5" stroke-width="0.376730109739369"></circle><circle cx="7" cy="18.5" r="0.49400441529492456" fill="#FFFFFF" stroke="#7bdcb5" stroke-width="0.37650617283950616"></circle><circle cx="10.5" cy="18.5" r="0.33707883230452673" fill="#7bdcb5"></circle><circle r="0.4896776406035665" fill="#FFFFFF" cx="13.5" cy="19" stroke="#7bdcb5" stroke-width="0.38184104938271607"></circle><circle cx="17.5" cy="19" r="0.5230377657750344" fill="#FFFFFF" stroke="#7bdcb5" stroke-width="0.36786042524005486"></circle><circle cx="20" cy="18.5" r="0.5204282407407408" fill="#FFFFFF" stroke="#7bdcb5" stroke-width="0.3909065500685871"></circle><circle r="0.49265453532235937" fill="#FFFFFF" cx="26" cy="18.5" stroke="#7bdcb5" stroke-width="0.3723192729766804"></circle><circle cx="29.5" cy="19" r="0.4810864626200274" fill="#FFFFFF" stroke="#7bdcb5" stroke-width="0.3766039094650206"></circle><circle cx="31" cy="18.5" r="0.4767684756515775" fill="#FFFFFF" stroke="#7bdcb5" stroke-width="0.3673264746227709"></circle><circle r="0.5204473165294925" fill="#FFFFFF" cx="1.5" cy="20" stroke="#7bdcb5" stroke-width="0.37284567901234567"></circle><circle cx="5.5" cy="20" r="0.5020713305898491" fill="#FFFFFF" stroke="#7bdcb5" stroke-width="0.3608094993141289"></circle><circle r="0.2597040037722908" fill="#7bdcb5" cx="8.5" cy="19.5"></circle><circle cx="13" cy="19.5" r="0.476332518861454" fill="#FFFFFF" stroke="#7bdcb5" stroke-width="0.3634591906721536"></circle><circle r="0.49252143347050753" fill="#FFFFFF" cx="15.5" cy="20" stroke="#7bdcb5" stroke-width="0.3819350137174211"></circle><circle r="0.5075192901234568" fill="#FFFFFF" cx="17" cy="19.5" stroke="#7bdcb5" stroke-width="0.37798679698216736"></circle><circle cx="24.5" cy="20" r="0.47934199245541836" fill="#FFFFFF" stroke="#7bdcb5" stroke-width="0.39635030864197535"></circle><circle r="0.521729895404664" fill="#FFFFFF" cx="28.5" cy="20" stroke="#7bdcb5" stroke-width="0.39625857338820303"></circle><circle cx="31.5" cy="19.5" r="0.29028849451303157" fill="#7bdcb5"></circle><circle cx="4" cy="20.5" r="0.5178660836762689" fill="#FFFFFF" stroke="#7bdcb5" stroke-width="0.3664082647462277"></circle><circle r="0.32327031893004116" fill="#7bdcb5" cx="6.5" cy="20.5"></circle><circle cx="15" cy="20.5" r="0.47961848422496567" fill="#FFFFFF" stroke="#7bdcb5" stroke-width="0.37367026748971194"></circle><circle cx="22" cy="20.5" r="0.5088258744855967" fill="#FFFFFF" stroke="#7bdcb5" stroke-width="0.38001971879286695"></circle><circle cx="27.5" cy="21" r="0.48190586419753084" fill="#FFFFFF" stroke="#7bdcb5" stroke-width="0.39360716735253776"></circle><circle cx="32.5" cy="20.5" r="0.49171060528120714" fill="#7bdcb5"></circle><circle cx="0.5" cy="22" r="0.5156340020576132" fill="#FFFFFF" stroke="#7bdcb5" stroke-width="0.39793535665294927"></circle><circle cx="2.5" cy="22" r="0.5010744598765432" fill="#FFFFFF" stroke="#7bdcb5" stroke-width="0.3832938957475995"></circle><circle cx="7.5" cy="22" r="0.518320901920439" fill="#FFFFFF" stroke="#7bdcb5" stroke-width="0.3906198559670782"></circle><circle cx="9.5" cy="21.5" r="0.3181895147462277" fill="#7bdcb5"></circle><circle r="0.450920567558299" fill="#7bdcb5" cx="11.5" cy="21.5"></circle><circle r="0.38894997427983535" fill="#7bdcb5" cx="13.5" cy="21.5"></circle><circle cx="16" cy="21.5" r="0.4872580161179698" fill="#FFFFFF" stroke="#7bdcb5" stroke-width="0.3778991769547325"></circle><circle cx="23" cy="21.5" r="0.5187484996570645" fill="#FFFFFF" stroke="#7bdcb5" stroke-width="0.37228909465020577"></circle><circle r="0.4773302469135802" fill="#FFFFFF" cx="30.5" cy="22" stroke="#7bdcb5" stroke-width="0.3873540809327847"></circle><circle cx="7" cy="22.5" r="0.5018910751028807" fill="#FFFFFF" stroke="#7bdcb5" stroke-width="0.3795644718792867"></circle><circle cx="8.5" cy="22.5" r="0.36003622256515777" fill="#7bdcb5"></circle><circle cx="12.5" cy="22.5" r="0.26054419581618654" fill="#7bdcb5"></circle><circle r="0.5232390260631001" fill="#FFFFFF" cx="21.5" cy="23" stroke="#7bdcb5" stroke-width="0.3853979766803841"></circle><circle cx="24.5" cy="23" r="0.47972650891632374" fill="#FFFFFF" stroke="#7bdcb5" stroke-width="0.3774603909465021"></circle><circle r="0.5025898062414266" fill="#FFFFFF" cx="26.5" cy="23" stroke="#7bdcb5" stroke-width="0.37868312757201644"></circle><circle cx="0.5" cy="24" r="0.5173928326474623" fill="#FFFFFF" stroke="#7bdcb5" stroke-width="0.3650420096021948"></circle><circle cx="3.5" cy="24" r="0.505230195473251" fill="#FFFFFF" stroke="#7bdcb5" stroke-width="0.38529132373113856"></circle><circle cx="4.5" cy="23.5" r="0.2690929355281207" fill="#7bdcb5"></circle><circle cx="10.5" cy="24" r="0.506087962962963" fill="#FFFFFF" stroke="#7bdcb5" stroke-width="0.3677676611796982"></circle><circle cx="14" cy="23.5" r="0.5152503429355282" fill="#FFFFFF" stroke="#7bdcb5" stroke-width="0.38320456104252404"></circle><circle r="0.516923225308642" fill="#FFFFFF" cx="18.5" cy="24" stroke="#7bdcb5" stroke-width="0.39078772290809327"></circle><circle cx="31" cy="23.5" r="0.5241943158436214" fill="#FFFFFF" stroke="#7bdcb5" stroke-width="0.3735181755829904"></circle><circle cx="32.5" cy="24" r="0.5012549296982167" fill="#FFFFFF" stroke="#7bdcb5" stroke-width="0.36613374485596706"></circle><circle r="0.49801718964334707" fill="#FFFFFF" cx="3" cy="24.5" stroke="#7bdcb5" stroke-width="0.39475754458161866"></circle><circle cx="6" cy="24.5" r="0.48546875" fill="#FFFFFF" stroke="#7bdcb5" stroke-width="0.38432784636488343"></circle><circle r="0.5034323559670781" fill="#FFFFFF" cx="8.5" cy="25" stroke="#7bdcb5" stroke-width="0.36792712620027435"></circle><circle cx="11.5" cy="24.5" r="0.41195666152263377" fill="#7bdcb5"></circle><circle cx="16.5" cy="24.5" r="0.46589506172839507" fill="#7bdcb5"></circle><circle cx="19.5" cy="25" r="0.5110575274348422" fill="#FFFFFF" stroke="#7bdcb5" stroke-width="0.38530298353909465"></circle><circle cx="22.5" cy="25" r="0.49357381687242796" fill="#FFFFFF" stroke="#7bdcb5" stroke-width="0.3725094307270233"></circle><circle r="0.523335048010974" fill="#FFFFFF" cx="28" cy="24.5" stroke="#7bdcb5" stroke-width="0.37987808641975307"></circle><circle cx="13.5" cy="26" r="0.5167350394375858" fill="#FFFFFF" stroke="#7bdcb5" stroke-width="0.3905342935528121"></circle><circle r="0.37656893004115227" fill="#7bdcb5" cx="17.5" cy="25.5"></circle><circle cx="22" cy="25.5" r="0.5064105366941015" fill="#FFFFFF" stroke="#7bdcb5" stroke-width="0.36797427983539094"></circle><circle cx="24.5" cy="26" r="0.5011488340192044" fill="#FFFFFF" stroke="#7bdcb5" stroke-width="0.37669701646090537"></circle><circle r="0.3037176354595336" fill="#7bdcb5" cx="32.5" cy="25.5"></circle><circle r="0.5111115397805213" fill="#FFFFFF" cx="8.5" cy="27" stroke="#7bdcb5" stroke-width="0.38719804526748974"></circle><circle cx="10.5" cy="27" r="0.5180026148834019" fill="#FFFFFF" stroke="#7bdcb5" stroke-width="0.38230967078189304"></circle><circle cx="12" cy="26.5" r="0.5133759859396434" fill="#FFFFFF" stroke="#7bdcb5" stroke-width="0.39648902606310016"></circle><circle cx="16" cy="26.5" r="0.5061852709190672" fill="#FFFFFF" stroke="#7bdcb5" stroke-width="0.37181670096021946"></circle><circle cx="20" cy="26.5" r="0.5039566186556927" fill="#FFFFFF" stroke="#7bdcb5" stroke-width="0.38886093964334706"></circle><circle cx="26.5" cy="26.5" r="0.2696598508230453" fill="#7bdcb5"></circle><circle cx="13.5" cy="27.5" r="0.46492091049382717" fill="#7bdcb5"></circle><circle cx="17.5" cy="27.5" r="0.4634227109053498" fill="#7bdcb5"></circle><circle cx="21.5" cy="27.5" r="0.4313025120027435" fill="#7bdcb5"></circle><circle fill="#FFFFFF" cx="28.5" cy="28" r="0.5126346021947874" stroke="#7bdcb5" stroke-width="0.3600008573388203"></circle><circle r="0.5194485168038409" fill="#FFFFFF" cx="30.5" cy="28" stroke="#7bdcb5" stroke-width="0.3809766803840878"></circle><circle r="0.5025355795610426" fill="#FFFFFF" cx="32.5" cy="28" stroke="#7bdcb5" stroke-width="0.37519324417009603"></circle><circle r="0.47602109053497943" fill="#FFFFFF" cx="8.5" cy="29" stroke="#7bdcb5" stroke-width="0.36618329903978053"></circle><circle cx="12" cy="28.5" r="0.5004899691358025" fill="#FFFFFF" stroke="#7bdcb5" stroke-width="0.39421519204389577"></circle><circle r="0.4972503000685871" fill="#FFFFFF" cx="16.5" cy="29" stroke="#7bdcb5" stroke-width="0.36848559670781894"></circle><circle cx="20.5" cy="29" r="0.5194607338820302" fill="#FFFFFF" stroke="#7bdcb5" stroke-width="0.39188151577503433"></circle><circle cx="26" cy="28.5" r="0.513065414951989" fill="#FFFFFF" stroke="#7bdcb5" stroke-width="0.36559242112482854"></circle><circle cx="29.5" cy="29" r="0.520110811042524" fill="#FFFFFF" stroke="#7bdcb5" stroke-width="0.38897565157750347"></circle><circle cx="3.5" cy="29.5" r="1.5" fill="#00d084"></circle><circle r="3" fill="none" cx="3.5" cy="29.5" stroke-width="1" stroke="#00d084"></circle><circle cx="10.5" cy="29.5" r="0.45166430898491083" fill="#7bdcb5"></circle><circle r="0.36810378086419754" fill="#7bdcb5" cx="12.5" cy="29.5"></circle><circle cx="16" cy="29.5" r="0.5158899176954732" fill="#FFFFFF" stroke="#7bdcb5" stroke-width="0.38215243484224964"></circle><circle cx="19" cy="29.5" r="0.4941544495884774" fill="#FFFFFF" stroke="#7bdcb5" stroke-width="0.3728813443072702"></circle><circle cx="22.5" cy="29.5" r="0.39623842592592595" fill="#7bdcb5"></circle><circle cx="24.5" cy="30" r="0.505076731824417" fill="#FFFFFF" stroke="#7bdcb5" stroke-width="0.36339900548696846"></circle><circle cx="14" cy="30.5" r="0.5084334276406036" fill="#FFFFFF" stroke="#7bdcb5" stroke-width="0.37990123456790126"></circle><circle r="0.5161040380658436" fill="#FFFFFF" cx="17.5" cy="31" stroke="#7bdcb5" stroke-width="0.37537928669410153"></circle><circle cx="26.5" cy="31" r="0.4890920781893004" fill="#FFFFFF" stroke="#7bdcb5" stroke-width="0.38478823731138545"></circle><circle cx="30.5" cy="30.5" r="0.38568137002743486" fill="#7bdcb5"></circle><circle cx="9.5" cy="32" r="0.47920481824417005" fill="#FFFFFF" stroke="#7bdcb5" stroke-width="0.37566443758573387"></circle><circle r="0.5042335390946502" fill="#FFFFFF" cx="11" cy="31.5" stroke="#7bdcb5" stroke-width="0.36937054183813445"></circle><circle cx="15" cy="31.5" r="0.4954946844993141" fill="#FFFFFF" stroke="#7bdcb5" stroke-width="0.38530126886145405"></circle><circle r="0.2569133659122085" fill="#7bdcb5" cx="18.5" cy="31.5"></circle><circle r="0.48312435699588474" fill="#FFFFFF" cx="20.5" cy="32" stroke="#7bdcb5" stroke-width="0.38016838134430725"></circle><circle cx="23" cy="31.5" r="0.4946609224965706" fill="#FFFFFF" stroke="#7bdcb5" stroke-width="0.3814449588477366"></circle><circle cx="9" cy="32.5" r="0.50764188957476" fill="#FFFFFF" stroke="#7bdcb5" stroke-width="0.3702247942386831"></circle><circle cx="16" cy="32.5" r="0.5193199159807956" fill="#FFFFFF" stroke="#7bdcb5" stroke-width="0.3840836762688615"></circle><circle cx="25" cy="32.5" r="0.48301504629629627" fill="#FFFFFF" stroke="#7bdcb5" stroke-width="0.3668093278463649"></circle><circle r="0.39838713134430725" fill="#7bdcb5" cx="28.5" cy="32.5"></circle><circle r="0.35830868484224965" fill="#7bdcb5" cx="32.5" cy="32.5"></circle><circle cx="19.5" cy="1.5" r="1" fill="#FFFFFF" stroke="#7bdcb5" stroke-width="0.48556481481481484"></circle><circle cx="21" cy="1" r="0.7071067811865476" fill="#FFFFFF" stroke="#7bdcb5" stroke-width="0.3315266203703704"></circle><circle cx="19.5" cy="4.5" r="1" fill="#FFFFFF" stroke="#7bdcb5" stroke-width="0.4242546296296296"></circle><circle cx="9.5" cy="6.5" r="1" fill="#FFFFFF" stroke="#7bdcb5" stroke-width="0.4176006944444445"></circle><circle r="0.7071067811865476" fill="#FFFFFF" cx="9" cy="8" stroke="#7bdcb5" stroke-width="0.475556712962963"></circle><circle r="0.7071067811865476" fill="#FFFFFF" cx="23" cy="8" stroke="#7bdcb5" stroke-width="0.39235300925925926"></circle><circle r="1" fill="#FFFFFF" cx="26.5" cy="9.5" stroke="#7bdcb5" stroke-width="0.4859236111111111"></circle><circle cx="26.5" cy="9.5" r="0.3727441272290809" fill="#7bdcb5"></circle><circle r="0.7071067811865476" fill="#FFFFFF" cx="26" cy="9" stroke="#7bdcb5" stroke-width="0.5416342592592592"></circle><circle r="0.7071067811865476" fill="#FFFFFF" cx="13" cy="10" stroke="#7bdcb5" stroke-width="0.4174479166666667"></circle><circle r="0.7071067811865476" fill="#FFFFFF" cx="24" cy="10" stroke="#7bdcb5" stroke-width="0.5206273148148148"></circle><circle cx="27" cy="10" r="0.7071067811865476" fill="#FFFFFF" stroke="#7bdcb5" stroke-width="0.5917118055555555"></circle><circle cx="31" cy="10" r="0.7071067811865476" fill="#FFFFFF" stroke="#7bdcb5" stroke-width="0.5353391203703703"></circle><circle cx="2.5" cy="11.5" r="1" fill="#FFFFFF" stroke="#7bdcb5" stroke-width="0.5240254629629629"></circle><circle r="1" fill="#FFFFFF" cx="9.5" cy="11.5" stroke="#7bdcb5" stroke-width="0.35202314814814817"></circle><circle r="0.7071067811865476" fill="#FFFFFF" cx="15" cy="11" stroke="#7bdcb5" stroke-width="0.34300115740740744"></circle><circle cx="16" cy="11" r="0.7071067811865476" fill="#FFFFFF" stroke="#7bdcb5" stroke-width="0.3508217592592593"></circle><circle cx="27" cy="11" r="0.7071067811865476" fill="#FFFFFF" stroke="#7bdcb5" stroke-width="0.524375"></circle><circle cx="19.5" cy="12.5" r="1" fill="#FFFFFF" stroke="#7bdcb5" stroke-width="0.41572800925925923"></circle><circle r="0.7071067811865476" fill="#FFFFFF" cx="26" cy="12" stroke="#7bdcb5" stroke-width="0.41303125"></circle><circle cx="27" cy="12" r="0.7071067811865476" fill="#FFFFFF" stroke="#7bdcb5" stroke-width="0.46071296296296294"></circle><circle cx="13.5" cy="13.5" r="1" fill="#FFFFFF" stroke="#7bdcb5" stroke-width="0.3975740740740741"></circle><circle cx="13.5" cy="13.5" r="0.25325895919067215" fill="#7bdcb5"></circle><circle r="1" fill="#FFFFFF" cx="31.5" cy="13.5" stroke="#7bdcb5" stroke-width="0.5027997685185185"></circle><circle r="0.4608367626886145" fill="#7bdcb5" cx="31.5" cy="13.5"></circle><circle cx="32" cy="13" r="0.7071067811865476" fill="#FFFFFF" stroke="#7bdcb5" stroke-width="0.3914699074074074"></circle><circle cx="30" cy="14" r="0.7071067811865476" fill="#FFFFFF" stroke="#7bdcb5" stroke-width="0.49699652777777775"></circle><circle cx="31" cy="14" r="0.7071067811865476" fill="#FFFFFF" stroke="#7bdcb5" stroke-width="0.581761574074074"></circle><circle r="0.7071067811865476" fill="#FFFFFF" cx="31" cy="15" stroke="#7bdcb5" stroke-width="0.5400983796296296"></circle><circle cx="9.5" cy="16.5" r="1" fill="#FFFFFF" stroke="#7bdcb5" stroke-width="0.3973055555555556"></circle><circle cx="18.5" cy="16.5" r="1" fill="#FFFFFF" stroke="#7bdcb5" stroke-width="0.41906944444444444"></circle><circle r="0.372184713648834" fill="#7bdcb5" cx="18.5" cy="16.5"></circle><circle r="0.7071067811865476" fill="#FFFFFF" cx="19" cy="16" stroke="#7bdcb5" stroke-width="0.42949189814814814"></circle><circle cx="25.5" cy="16.5" r="1" fill="#FFFFFF" stroke="#7bdcb5" stroke-width="0.4625798611111111"></circle><circle cx="25.5" cy="16.5" r="0.3355045438957476" fill="#7bdcb5"></circle><circle cx="25" cy="16" r="0.7071067811865476" fill="#FFFFFF" stroke="#7bdcb5" stroke-width="0.4170405092592593"></circle><circle r="0.7071067811865476" fill="#FFFFFF" cx="26" cy="16" stroke="#7bdcb5" stroke-width="0.49083333333333334"></circle><circle cx="27" cy="16" r="0.7071067811865476" fill="#FFFFFF" stroke="#7bdcb5" stroke-width="0.4978900462962963"></circle><circle r="0.7071067811865476" fill="#FFFFFF" cx="28" cy="16" stroke="#7bdcb5" stroke-width="0.5223773148148148"></circle><circle cx="4" cy="17" r="0.7071067811865476" fill="#FFFFFF" stroke="#7bdcb5" stroke-width="0.5225972222222222"></circle><circle r="0.7071067811865476" fill="#FFFFFF" cx="16" cy="17" stroke="#7bdcb5" stroke-width="0.37110763888888887"></circle><circle r="0.7071067811865476" fill="#FFFFFF" cx="19" cy="17" stroke="#7bdcb5" stroke-width="0.4092060185185185"></circle><circle cx="23.5" cy="20.5" r="1" fill="#FFFFFF" stroke="#7bdcb5" stroke-width="0.4402361111111111"></circle><circle r="1" fill="#FFFFFF" cx="18.5" cy="21.5" stroke="#7bdcb5" stroke-width="0.490917824074074"></circle><circle r="0.3830911351165981" fill="#7bdcb5" cx="18.5" cy="21.5"></circle><circle cx="28.5" cy="21.5" r="1" fill="#FFFFFF" stroke="#7bdcb5" stroke-width="0.5909988425925926"></circle><circle cx="18" cy="22" r="0.7071067811865476" fill="#FFFFFF" stroke="#7bdcb5" stroke-width="0.38870949074074074"></circle><circle cx="19" cy="22" r="0.7071067811865476" fill="#FFFFFF" stroke="#7bdcb5" stroke-width="0.5040300925925926"></circle><circle cx="20" cy="22" r="0.7071067811865476" fill="#FFFFFF" stroke="#7bdcb5" stroke-width="0.3909479166666667"></circle><circle cx="31.5" cy="22.5" r="1" fill="#FFFFFF" stroke="#7bdcb5" stroke-width="0.46379050925925924"></circle><circle cx="23.5" cy="23.5" r="1" fill="#FFFFFF" stroke="#7bdcb5" stroke-width="0.5664791666666666"></circle><circle r="0.7071067811865476" fill="#FFFFFF" cx="15" cy="24" stroke="#7bdcb5" stroke-width="0.5600069444444444"></circle><circle cx="25" cy="24" r="0.7071067811865476" fill="#FFFFFF" stroke="#7bdcb5" stroke-width="0.4657824074074074"></circle><circle cx="26" cy="24" r="0.7071067811865476" fill="#FFFFFF" stroke="#7bdcb5" stroke-width="0.5092280092592593"></circle><circle cx="29" cy="25" r="0.7071067811865476" fill="#FFFFFF" stroke="#7bdcb5" stroke-width="0.4281087962962963"></circle><circle r="0.7071067811865476" fill="#FFFFFF" cx="29" cy="26" stroke="#7bdcb5" stroke-width="0.5149699074074074"></circle><circle r="0.7071067811865476" fill="#FFFFFF" cx="30" cy="26" stroke="#7bdcb5" stroke-width="0.35216550925925927"></circle><circle cx="24" cy="27" r="0.7071067811865476" fill="#FFFFFF" stroke="#7bdcb5" stroke-width="0.49139814814814814"></circle><circle fill="#FFFFFF" cx="24" cy="28" r="0.7071067811865476" stroke="#7bdcb5" stroke-width="0.4363784722222222"></circle><circle r="0.7071067811865476" fill="#FFFFFF" cx="27" cy="29" stroke="#7bdcb5" stroke-width="0.4890416666666667"></circle><circle r="0.7071067811865476" fill="#FFFFFF" cx="12" cy="32" stroke="#7bdcb5" stroke-width="0.35607175925925927"></circle><circle cx="10.5" cy="0.5" r="0.4438059413580247" fill="#FFFFFF" stroke="#7bdcb5" stroke-width="0.25928626543209876"></circle><circle fill="#FFFFFF" cx="11.5" cy="1.5" r="0.5429793595679012" stroke="#7bdcb5" stroke-width="0.1888564814814815"></circle><circle r="0.42920717592592594" fill="#FFFFFF" cx="13.5" cy="2.5" stroke="#7bdcb5" stroke-width="0.17279243827160493"></circle><circle r="0.5699392361111111" fill="#FFFFFF" cx="14.5" cy="2.5" stroke="#7bdcb5" stroke-width="0.2719058641975309"></circle><circle r="0.5515962577160494" fill="#FFFFFF" cx="9.5" cy="4.5" stroke="#7bdcb5" stroke-width="0.22547222222222224"></circle><circle cx="16.5" cy="4.5" r="0.6430989583333333" fill="#FFFFFF" stroke="#7bdcb5" stroke-width="0.31876697530864195"></circle><circle cx="18.5" cy="7.5" r="0.6195351080246914" fill="#FFFFFF" stroke="#7bdcb5" stroke-width="0.3048695987654321"></circle><circle cx="21.5" cy="7.5" r="0.5586603009259259" fill="#FFFFFF" stroke="#7bdcb5" stroke-width="0.22760493827160494"></circle><circle r="0.4360570987654321" fill="#FFFFFF" cx="24.5" cy="8.5" stroke="#7bdcb5" stroke-width="0.2016983024691358"></circle><circle r="0.47723958333333333" fill="#FFFFFF" cx="7.5" cy="9.5" stroke="#7bdcb5" stroke-width="0.272329475308642"></circle><circle r="0.6309702932098765" fill="#FFFFFF" cx="9.5" cy="9.5" stroke="#7bdcb5" stroke-width="0.251795524691358"></circle><circle cx="15.5" cy="9.5" r="0.5912094907407408" fill="#FFFFFF" stroke="#7bdcb5" stroke-width="0.319616512345679"></circle><circle cx="0.5" cy="10.5" r="0.5891049382716049" fill="#FFFFFF" stroke="#7bdcb5" stroke-width="0.3200625"></circle><circle r="0.5225588348765432" fill="#FFFFFF" stroke="#7bdcb5" stroke-width="0.16381635802469136" cx="3.5" cy="10.5"></circle><circle cx="8.5" cy="10.5" r="0.5145466820987654" fill="#FFFFFF" stroke="#7bdcb5" stroke-width="0.30698996913580245"></circle><circle r="0.570264274691358" fill="#FFFFFF" cx="9.5" cy="11.5" stroke="#7bdcb5" stroke-width="0.17045293209876544"></circle><circle cx="24.5" cy="11.5" r="0.4256606867283951" fill="#FFFFFF" stroke="#7bdcb5" stroke-width="0.2440756172839506"></circle><circle cx="3.5" cy="12.5" r="0.4806028163580247" fill="#FFFFFF" stroke="#7bdcb5" stroke-width="0.2774737654320988"></circle><circle r="0.564591049382716" fill="#FFFFFF" cx="7.5" cy="12.5" stroke="#7bdcb5" stroke-width="0.25711805555555556"></circle><circle cx="10.5" cy="12.5" r="0.552211612654321" fill="#FFFFFF" stroke="#7bdcb5" stroke-width="0.30420524691358025"></circle><circle cx="29.5" cy="12.5" r="0.5634307484567902" fill="#FFFFFF" stroke="#7bdcb5" stroke-width="0.26355092592592594"></circle><circle cx="17.5" cy="13.5" r="0.4523881172839506" fill="#FFFFFF" stroke="#7bdcb5" stroke-width="0.2175408950617284"></circle><circle r="0.5180806327160494" fill="#FFFFFF" cx="25.5" cy="13.5" stroke="#7bdcb5" stroke-width="0.3224097222222222"></circle><circle r="0.6338483796296297" fill="#FFFFFF" cx="27.5" cy="13.5" stroke="#7bdcb5" stroke-width="0.24706095679012346"></circle><circle r="0.5252083333333333" fill="#FFFFFF" cx="0.5" cy="14.5" stroke="#7bdcb5" stroke-width="0.258204475308642"></circle><circle fill="#FFFFFF" cx="3.5" cy="14.5" r="0.4970881558641975" stroke="#7bdcb5" stroke-width="0.18158796296296295"></circle><circle cx="22.5" cy="14.5" r="0.618323688271605" fill="#FFFFFF" stroke="#7bdcb5" stroke-width="0.2909375"></circle><circle r="0.4486525848765432" fill="#FFFFFF" cx="25.5" cy="14.5" stroke="#7bdcb5" stroke-width="0.32219135802469134"></circle><circle cx="1.5" cy="15.5" r="0.4535812114197531" fill="#FFFFFF" stroke="#7bdcb5" stroke-width="0.27511574074074074"></circle><circle cx="17.5" cy="15.5" r="0.48683159722222225" fill="#FFFFFF" stroke="#7bdcb5" stroke-width="0.18458641975308643"></circle><circle cx="1.5" cy="16.5" r="0.5767544367283951" fill="#FFFFFF" stroke="#7bdcb5" stroke-width="0.2224506172839506"></circle><circle cx="2.5" cy="16.5" r="0.4881462191358025" fill="#FFFFFF" stroke="#7bdcb5" stroke-width="0.24642515432098766"></circle><circle r="0.4355304783950617" fill="#FFFFFF" cx="1.5" cy="17.5" stroke="#7bdcb5" stroke-width="0.24322145061728395"></circle><circle cx="13.5" cy="17.5" r="0.47172260802469135" fill="#FFFFFF" stroke="#7bdcb5" stroke-width="0.2616195987654321"></circle><circle r="0.4295978009259259" fill="#FFFFFF" cx="17.5" cy="17.5" stroke="#7bdcb5" stroke-width="0.19935493827160494"></circle><circle r="0.5480603780864197" fill="#FFFFFF" cx="11.5" cy="18.5" stroke="#7bdcb5" stroke-width="0.19569907407407408"></circle><circle r="0.532770061728395" fill="#FFFFFF" cx="18.5" cy="18.5" stroke="#7bdcb5" stroke-width="0.18351311728395062"></circle><circle cx="23.5" cy="18.5" r="0.48315779320987656" fill="#FFFFFF" stroke="#7bdcb5" stroke-width="0.20854552469135804"></circle><circle r="0.43887538580246915" fill="#FFFFFF" cx="10.5" cy="19.5" stroke="#7bdcb5" stroke-width="0.29200848765432097"></circle><circle cx="0.5" cy="20.5" r="0.5742139274691358" fill="#FFFFFF" stroke="#7bdcb5" stroke-width="0.21902932098765432"></circle><circle cx="8.5" cy="20.5" r="0.6191753472222222" fill="#FFFFFF" stroke="#7bdcb5" stroke-width="0.32796141975308646"></circle><circle r="0.47813657407407406" fill="#FFFFFF" cx="9.5" cy="20.5" stroke="#7bdcb5" stroke-width="0.2866581790123457"></circle><circle cx="12.5" cy="20.5" r="0.5548775077160494" fill="#FFFFFF" stroke="#7bdcb5" stroke-width="0.16059722222222222"></circle><circle r="0.5611680169753086" fill="#FFFFFF" cx="16.5" cy="20.5" stroke="#7bdcb5" stroke-width="0.1670185185185185"></circle><circle cx="9.5" cy="22.5" r="0.5157127700617284" fill="#FFFFFF" stroke="#7bdcb5" stroke-width="0.16361728395061728"></circle><circle r="0.4954301697530864" fill="#FFFFFF" stroke="#7bdcb5" stroke-width="0.2648449074074074" cx="23.5" cy="23.5"></circle><circle cx="30.5" cy="24.5" r="0.520775462962963" fill="#FFFFFF" stroke="#7bdcb5" stroke-width="0.21410262345679013"></circle><circle cx="20.5" cy="25.5" r="0.5827690972222223" fill="#FFFFFF" stroke="#7bdcb5" stroke-width="0.1563364197530864"></circle><circle cx="17.5" cy="26.5" r="0.5199546682098766" fill="#FFFFFF" stroke="#7bdcb5" stroke-width="0.22673302469135803"></circle><circle cx="15.5" cy="27.5" r="0.5367650462962963" fill="#FFFFFF" stroke="#7bdcb5" stroke-width="0.20939429012345678"></circle><circle r="0.5255353009259259" fill="#FFFFFF" cx="9.5" cy="28.5" stroke="#7bdcb5" stroke-width="0.17110493827160494"></circle><circle r="0.5681558641975308" fill="#FFFFFF" cx="22.5" cy="28.5" stroke="#7bdcb5" stroke-width="0.3221921296296296"></circle><circle r="0.5773447145061729" fill="#FFFFFF" cx="11.5" cy="29.5" stroke="#7bdcb5" stroke-width="0.2945895061728395"></circle><circle r="0.48498456790123456" fill="#FFFFFF" cx="23.5" cy="29.5" stroke="#7bdcb5" stroke-width="0.30121064814814813"></circle><circle r="0.49648341049382716" fill="#FFFFFF" cx="28.5" cy="29.5" stroke="#7bdcb5" stroke-width="0.18179861111111112"></circle><circle r="0.4685339506172839" fill="#FFFFFF" cx="28.5" cy="30.5" stroke="#7bdcb5" stroke-width="0.2954575617283951"></circle><circle r="0.44135416666666666" fill="#FFFFFF" cx="21.5" cy="31.5" stroke="#7bdcb5" stroke-width="0.19612114197530864"></circle><circle r="0.4819974922839506" fill="#FFFFFF" stroke="#7bdcb5" stroke-width="0.2149783950617284" cx="27.5" cy="31.5"></circle><circle r="0.5884365354938272" fill="#FFFFFF" stroke="#7bdcb5" stroke-width="0.2066111111111111" cx="31.5" cy="32.5"></circle><path d="M32.048565,-1.29480038e-15 L67.951435,1.29480038e-15 C79.0954192,-7.52316311e-16 83.1364972,1.16032014 87.2105713,3.3391588 C91.2846454,5.51799746 94.4820025,8.71535463 96.6608412,12.7894287 C98.8396799,16.8635028 100,20.9045808 100,32.048565 L100,67.951435 C100,79.0954192 98.8396799,83.1364972 96.6608412,87.2105713 C94.4820025,91.2846454 91.2846454,94.4820025 87.2105713,96.6608412 C83.1364972,98.8396799 79.0954192,100 67.951435,100 L32.048565,100 C20.9045808,100 16.8635028,98.8396799 12.7894287,96.6608412 C8.71535463,94.4820025 5.51799746,91.2846454 3.3391588,87.2105713 C1.16032014,83.1364972 5.01544207e-16,79.0954192 -8.63200256e-16,67.951435 L8.63200256e-16,32.048565 C-5.01544207e-16,20.9045808 1.16032014,16.8635028 3.3391588,12.7894287 C5.51799746,8.71535463 8.71535463,5.51799746 12.7894287,3.3391588 C16.8635028,1.16032014 20.9045808,7.52316311e-16 32.048565,-1.29480038e-15 Z" stroke="#FFF" stroke-width="13.774104683195592" fill="#FFF" transform="translate(12.870000000000001,12.870000000000001) scale(0.0726,0.0726)"></path><g><defs><path id="defs-path43" d="M32.048565,-1.29480038e-15 L67.951435,1.29480038e-15 C79.0954192,-7.52316311e-16 83.1364972,1.16032014 87.2105713,3.3391588 C91.2846454,5.51799746 94.4820025,8.71535463 96.6608412,12.7894287 C98.8396799,16.8635028 100,20.9045808 100,32.048565 L100,67.951435 C100,79.0954192 98.8396799,83.1364972 96.6608412,87.2105713 C94.4820025,91.2846454 91.2846454,94.4820025 87.2105713,96.6608412 C83.1364972,98.8396799 79.0954192,100 67.951435,100 L32.048565,100 C20.9045808,100 16.8635028,98.8396799 12.7894287,96.6608412 C8.71535463,94.4820025 5.51799746,91.2846454 3.3391588,87.2105713 C1.16032014,83.1364972 5.01544207e-16,79.0954192 -8.63200256e-16,67.951435 L8.63200256e-16,32.048565 C-5.01544207e-16,20.9045808 1.16032014,16.8635028 3.3391588,12.7894287 C5.51799746,8.71535463 8.71535463,5.51799746 12.7894287,3.3391588 C16.8635028,1.16032014 20.9045808,7.52316311e-16 32.048565,-1.29480038e-15 Z" fill="#FFF" transform="translate(12.870000000000001,12.870000000000001) scale(0.0726,0.0726)"></path>                    </defs><clipPath id="clip-path44"><use xlink:href="#defs-path43" overflow="visible"></use></clipPath><g clip-path="url(#clip-path44)"><g transform="translate(12.870000000000001,12.870000000000001) scale(0.0726,0.0726)"><g><rect width="100" height="100" fill="#07c160"></rect><path d="M48.766,39.21a2.941,2.941,0,1,1,2.918-2.94,2.929,2.929,0,0,1-2.918,2.94m-16.455,0a2.941,2.941,0,1,1,2.918-2.941,2.93,2.93,0,0,1-2.918,2.941m8.227-17.039c-13.632,0-24.682,9.282-24.682,20.732,0,6.247,3.324,11.87,8.528,15.67a1.662,1.662,0,0,1,.691,1.352,1.984,1.984,0,0,1-.087.528c-.415,1.563-1.081,4.064-1.112,4.181a2.449,2.449,0,0,0-.132.607.825.825,0,0,0,.823.828.914.914,0,0,0,.474-.154l5.405-3.144a2.57,2.57,0,0,1,1.31-.382,2.442,2.442,0,0,1,.725.109,28.976,28.976,0,0,0,8.057,1.137c.455,0,.907-.012,1.356-.032a16.084,16.084,0,0,1-.829-5.082c0-10.442,10.078-18.908,22.511-18.908.45,0,.565.015,1.008.037-1.858-9.9-11.732-17.479-24.046-17.479" fill="#fff"></path><path d="M70.432,55.582A2.589,2.589,0,1,1,73,52.994a2.578,2.578,0,0,1-2.568,2.588m-13.713,0a2.589,2.589,0,1,1,2.568-2.588,2.578,2.578,0,0,1-2.568,2.588m20.319,16a16.3,16.3,0,0,0,7.106-13.058c0-9.542-9.208-17.276-20.568-17.276s-20.57,7.734-20.57,17.276S52.216,75.8,63.576,75.8a24.161,24.161,0,0,0,6.714-.947,2.079,2.079,0,0,1,.6-.091,2.138,2.138,0,0,1,1.092.319l4.5,2.62a.78.78,0,0,0,.4.129.688.688,0,0,0,.685-.691,2.081,2.081,0,0,0-.11-.5l-.927-3.486a1.641,1.641,0,0,1-.073-.44,1.385,1.385,0,0,1,.577-1.126" fill="#fff"></path></g></g></g></g></svg>