<?xml version="1.0" standalone="no"?>
<!DOCTYPE svg PUBLIC "-//W3C//DTD SVG 20010904//EN"
 "http://www.w3.org/TR/2001/REC-SVG-20010904/DTD/svg10.dtd">
<svg version="1.0" xmlns="http://www.w3.org/2000/svg"
 width="1024.000000pt" height="1024.000000pt" viewBox="0 0 1024.000000 1024.000000"
 preserveAspectRatio="xMidYMid meet">
<metadata>
Created by potrace 1.14, written by Peter Selinger 2001-2017
</metadata>
<g transform="translate(0.000000,1024.000000) scale(0.100000,-0.100000)"
fill="#000000" stroke="none">
<path d="M3110 9117 c-3 -3 -23 -7 -45 -11 -172 -24 -378 -173 -462 -332 l-27
-52 -41 24 c-100 58 -225 82 -336 63 -172 -30 -325 -163 -377 -329 -23 -72
-30 -169 -17 -228 6 -28 3 -32 -41 -53 -116 -58 -200 -174 -217 -300 -7 -56
11 -155 38 -210 66 -130 185 -204 344 -214 31 -2 57 -4 59 -4 2 -1 -17 -27
-41 -58 -425 -560 -701 -1292 -764 -2028 -14 -166 -7 -602 12 -740 2 -16 11
-82 20 -145 103 -754 450 -1498 966 -2070 528 -586 1207 -997 1964 -1190 150
-38 402 -84 525 -96 36 -3 76 -8 90 -11 47 -9 585 -11 675 -2 485 47 835 135
1250 311 468 200 863 471 1245 857 613 617 998 1411 1105 2276 4 28 8 61 11
75 7 45 19 273 19 380 0 123 -13 412 -19 432 -3 7 -7 42 -11 78 -16 189 -93
530 -171 767 -112 339 -248 616 -458 938 -226 344 -526 669 -861 931 -92 72
-233 173 -292 209 -18 11 -75 46 -128 78 -111 68 -347 187 -490 247 -277 118
-700 232 -985 266 -30 3 -66 8 -80 10 -176 26 -818 25 -920 -1 -8 -2 -37 -6
-65 -10 -79 -10 -112 -15 -240 -41 -186 -37 -258 -56 -433 -111 -78 -25 -116
-33 -121 -25 -69 113 -204 224 -326 271 -33 12 -71 27 -85 33 -26 11 -261 24
-270 15z"/>
</g>
</svg>
